<svg width="63" height="62" viewBox="0 0 63 62" fill="none" xmlns="http://www.w3.org/2000/svg">
<path fill-rule="evenodd" clip-rule="evenodd" d="M18.3174 41.7232C18.8894 46.2672 21.7214 48.8802 26.2274 49.1312C34.9994 49.6192 44.2144 48.7562 53.0324 49.1192C58.0584 49.8402 60.4224 55.7742 57.0234 59.7512C52.2454 65.3402 43.4374 59.6012 46.4834 52.7762L47.5474 51.0442H28.4664C28.6324 51.5252 29.0394 51.8572 29.3014 52.3222C31.3754 56.0002 29.3934 60.7892 25.3344 61.7842C18.5984 63.4352 14.3834 54.5782 20.1694 50.2472C20.3794 50.0892 21.2064 49.7612 21.0224 49.5382C19.6224 48.8462 18.4144 47.5182 17.6684 46.1492C16.9384 44.8132 16.2504 42.4262 15.9424 40.9072C13.9844 31.2602 13.2494 20.6542 11.6644 10.8362C11.3854 9.11319 11.1094 6.90119 10.6754 5.25719C9.47044 0.688192 4.66244 2.43919 1.19244 2.11519C-0.119561 1.99219 -0.452561 0.734192 0.718439 0.114192C4.32944 0.220192 8.96244 -0.947808 11.4714 2.39519C12.8444 4.22419 12.8114 6.73619 13.3094 8.89519L13.5304 9.21919L57.4984 9.23119C60.7174 9.77319 62.2264 12.1142 62.0244 15.3352C61.5784 22.4792 59.4494 30.1592 58.8774 37.3682C58.8704 38.9932 56.3014 41.7232 54.7864 41.7232H18.3174ZM57.3574 11.1562H13.7164L17.9714 39.8122L53.8444 39.8082C55.6404 39.6262 56.6204 38.5572 56.9824 36.8192C58.4674 29.6892 58.7244 21.8482 60.1414 14.6532C60.2314 13.0552 58.9194 11.3802 57.3574 11.1562ZM23.1554 51.0802C17.6904 51.8012 18.3794 60.6832 24.4594 59.9382C29.9444 59.2662 29.0854 50.2972 23.1554 51.0802ZM55.3474 52.3252C51.5414 48.4682 45.3884 53.8512 48.7684 58.2362C52.6154 63.2292 59.6914 56.7262 55.3474 52.3252ZM22.3744 19.0332L24.4444 31.8842C24.5894 33.3812 26.4794 33.3062 26.4394 31.7922C25.4444 27.7652 25.4424 22.8682 24.3694 18.9382C24.1924 18.2912 23.8784 17.8842 23.1534 18.0332C22.7264 18.1212 22.3684 18.5912 22.3744 19.0332ZM49.8874 19.2162C48.9614 23.3132 48.7484 27.8122 47.8284 31.9412C47.8264 33.0282 49.4144 33.4622 49.8144 32.1622C50.1304 28.0132 51.6524 23.3902 51.8774 19.3072C51.9414 18.1442 50.8054 17.5082 50.1574 18.3222C50.0054 18.5132 49.9464 18.9582 49.8874 19.2162ZM40.7934 19.0502C40.7294 23.2052 40.2384 27.3712 40.0954 31.5082C40.0314 33.3792 41.9134 33.4222 42.1214 31.9092C42.2424 28.0252 42.5664 24.1572 42.6764 20.2722C42.6994 19.4692 43.1414 17.7092 41.5574 18.0332C41.0734 18.1332 40.8494 18.5892 40.7934 19.0502ZM31.5734 20.9622C31.6444 23.6832 31.9334 26.4622 32.1184 29.1822C32.1744 29.9942 31.9274 32.6022 32.7894 32.8892C33.6314 33.1722 34.0814 32.7632 34.1564 31.9282C34.4704 28.4162 33.3764 24.0192 33.6074 20.4092C33.4214 19.5092 33.6744 17.7292 32.2204 18.0332C31.3014 18.2262 31.5524 20.1752 31.5734 20.9622ZM23.1184 56.2552C24.1454 57.1842 25.3564 55.6452 24.5044 54.7832C23.6224 53.8912 22.0594 55.2982 23.1184 56.2552ZM52.3384 56.5252C53.6564 56.3902 53.4004 54.2892 52.1084 54.4942C50.9424 54.6802 51.0064 56.6622 52.3384 56.5252Z" fill="#5F9EC5"/>
</svg>
