<svg width="61" height="61" viewBox="0 0 61 61" fill="none" xmlns="http://www.w3.org/2000/svg">
<path fill-rule="evenodd" clip-rule="evenodd" d="M12.667 0C13.852 0.371 14.889 0.919 15.462 2.071C15.525 2.198 15.834 2.94 15.834 2.989V5.275H36.478V3.106C36.478 2.992 36.973 1.887 37.084 1.719C37.68 0.823 38.639 0.297 39.645 0H40.935C42.031 0.355 42.93 0.775 43.538 1.794C43.67 2.014 44.102 2.915 44.102 3.106V5.275C45.639 5.376 47.34 5.14 48.857 5.271C50.683 5.428 52.19 7.031 52.317 8.845L52.305 38.256C58.014 40.191 61.198 46.016 59.618 51.899C58.702 55.311 55.769 58.38 52.405 59.459C51.609 59.714 50.769 59.792 49.967 60.012H47.738C47.124 59.83 46.485 59.772 45.862 59.601C43.082 58.839 40.566 56.853 39.156 54.347C38.965 54.008 38.291 52.336 38.163 52.292L3.344 52.275C1.57 52.029 0.407 50.676 0 48.994V8.673C0.23 7.979 0.324 7.413 0.772 6.808C2.533 4.439 5.671 5.506 8.21 5.275V3.223C8.21 3.126 8.503 2.34 8.577 2.183C9.111 1.051 10.204 0.334 11.377 0H12.667ZM11.699 1.785C10.984 1.898 10.173 2.558 10.022 3.276C9.825 4.209 9.873 7.461 9.965 8.503C10.163 10.749 13.233 11.138 14.013 9.022C14.312 8.213 14.281 5.02 14.196 4.04C14.081 2.7 13.141 1.557 11.699 1.785ZM39.967 1.785C39.31 1.889 38.4 2.584 38.264 3.25C38.1 4.056 38.127 7.839 38.235 8.735C38.472 10.707 41.61 11.101 42.31 8.933C42.576 8.11 42.556 4.893 42.459 3.928C42.329 2.637 41.33 1.57 39.967 1.785ZM8.21 6.915C6.627 7.106 3.476 6.396 2.299 7.63C2.17 7.765 1.759 8.481 1.759 8.615V16.41H50.553V8.498C50.553 8.424 50.086 7.671 49.971 7.556C49.722 7.307 49.39 7.162 49.053 7.066C48.212 6.829 45.423 6.802 44.507 6.909C44.336 6.929 44.205 6.924 44.102 7.091V9.084C44.102 10.65 41.779 12.2 40.29 12.2C38.719 12.2 36.478 10.618 36.478 8.967V7.091H15.834V9.084C15.834 9.269 15.366 10.269 15.229 10.471C13.646 12.806 10.092 12.737 8.702 10.233C8.578 10.009 8.21 9.158 8.21 8.967V6.915ZM50.553 18.168H1.759V48.935C1.759 49.11 2.242 49.894 2.405 50.048C2.61 50.24 3.453 50.635 3.694 50.635H37.886C36.62 43.267 43.192 36.689 50.553 37.859V18.168ZM47.597 39.535C43.988 39.902 40.689 42.925 39.796 46.39C37.671 54.634 46.402 61.306 53.756 56.942C62.32 51.86 58.04 38.469 47.597 39.535ZM37.858 22.301C39.2 22.095 42.748 22.146 44.165 22.266C45.098 22.345 45.424 22.533 45.514 23.496C45.657 25.026 45.657 28.187 45.514 29.717C45.432 30.594 45.159 30.867 44.283 30.948C42.751 31.091 39.589 31.091 38.057 30.948C37.179 30.866 36.907 30.593 36.825 29.717C36.687 28.234 36.666 24.843 36.83 23.384C36.909 22.679 37.158 22.408 37.858 22.301ZM43.75 24.028H38.589V29.186H43.75V24.028ZM22.372 22.298C23.56 22.101 27.659 22.131 28.913 22.27C29.631 22.349 29.966 22.523 30.032 23.261C30.182 24.931 30.185 28.285 30.032 29.953C29.965 30.687 29.638 30.864 28.913 30.944C27.853 31.062 23.071 31.093 22.19 30.863C21.617 30.713 21.511 30.523 21.459 29.953C21.316 28.373 21.283 24.69 21.462 23.147C21.528 22.585 21.836 22.387 22.372 22.298ZM28.267 24.028H23.224V29.186H28.267V24.028ZM6.889 22.298C8.087 22.083 12 22.154 13.317 22.266C13.868 22.313 14.466 22.384 14.55 23.026C14.832 25.19 14.323 27.956 14.55 30.188C14.55 30.544 14.243 30.774 13.939 30.866C13.187 31.092 8.216 31.042 7.209 30.948C6.331 30.866 6.059 30.593 5.977 29.717C5.839 28.235 5.818 24.842 5.982 23.384C6.048 22.795 6.275 22.408 6.889 22.298ZM12.902 24.028H7.741V29.186H12.902V24.028ZM21.733 37.074C21.914 36.928 22.122 36.935 22.339 36.917C24.62 36.723 27.256 37.02 29.555 36.982L30.033 37.677C29.869 39.872 30.23 42.325 30.033 44.487C29.978 45.079 29.787 45.407 29.15 45.48C27.635 45.656 24.005 45.625 22.456 45.483C21.864 45.429 21.536 45.238 21.462 44.601C21.285 43.084 21.31 39.34 21.457 37.793C21.478 37.563 21.546 37.225 21.733 37.074ZM28.267 38.562H23.224V43.719H28.267V38.562ZM6.249 45.211C6.119 45.081 6 44.679 5.979 44.484C5.814 43.002 5.836 39.536 5.977 38.03C6.024 37.53 6.145 36.969 6.738 36.915C8.973 37.081 11.469 36.716 13.67 36.916C14.102 36.955 14.525 37.05 14.55 37.56C14.371 39.82 14.767 42.385 14.551 44.606C14.489 45.248 14.153 45.428 13.553 45.483C12.014 45.625 8.489 45.649 6.976 45.481C6.781 45.459 6.379 45.341 6.249 45.211ZM12.902 38.562H7.741V43.719H12.902V38.562ZM47.973 42.899V48.818C47.973 48.869 48.153 49.336 48.203 49.409L53.65 52.168L54.424 50.637L49.732 48.408V42.899H47.973Z" fill="#5F9EC5"/>
</svg>
