<svg width="63" height="71" viewBox="0 0 63 71" fill="none" xmlns="http://www.w3.org/2000/svg">
<path fill-rule="evenodd" clip-rule="evenodd" d="M37.645 70.691C37.601 70.691 37.557 70.69 37.514 70.687L3.89 70.681L3.875 70.679C2.01 70.461 0.672 69.365 0.107 67.593L0.094 67.554L0 3.599L0.005 3.575C0.343 1.761 1.582 0.494 3.495 0.00800002L3.528 0H38.033L38.068 0.009C39.622 0.428 40.83 1.479 41.299 2.822C41.301 2.829 41.559 3.617 41.559 3.761V16.441H54.256C55.836 16.441 57.661 17.379 59.263 19.017C60.996 20.787 62.047 22.974 62.007 24.724L62.006 24.734C61.877 26.842 61.952 29.081 62.024 31.247C62.103 33.599 62.184 36.031 62.005 38.312C61.712 42.052 58.006 46.569 53.844 46.569H41.559V66.921C41.559 68.577 39.364 70.691 37.645 70.691ZM9.232 68.758C11.781 68.758 14.374 68.768 16.881 68.778C19.388 68.788 21.98 68.798 24.528 68.798C29.939 68.798 34.109 68.752 38.042 68.647C38.711 68.497 39.651 67.413 39.651 66.783V58.214H1.909V67.058C1.909 67.702 3.18 68.781 3.939 68.781C3.964 68.781 3.989 68.779 4.013 68.776L4.027 68.775H4.041C5.639 68.763 7.337 68.758 9.232 68.758ZM39.602 56.309L39.651 56.26V47.498L30.395 53.929C30.075 54.134 29.606 54.262 29.169 54.262C28.714 54.262 28.354 54.127 28.129 53.873L28.088 53.826L26.096 46.578C21.843 46.077 18.291 42.541 17.969 38.449C17.785 36.098 17.869 33.591 17.95 31.165C18.025 28.936 18.102 26.63 17.969 24.461L17.968 24.441L17.969 24.423C18.111 22.639 19.021 20.736 20.467 19.202C21.924 17.659 23.776 16.653 25.55 16.443L25.566 16.441H39.602L39.651 16.392V7.16L39.602 7.111H1.909V56.309H39.602ZM19.885 24.858C20.106 26.642 19.996 28.692 19.879 30.863C19.56 36.82 19.23 42.98 25.679 44.498C25.818 44.531 25.999 44.541 26.191 44.552C26.695 44.58 27.322 44.615 27.662 45.118L27.687 45.155L29.517 52.029L40.085 44.736L40.148 44.727C40.931 44.617 41.84 44.564 42.926 44.564C44.037 44.564 45.178 44.617 46.387 44.673C47.59 44.729 48.834 44.786 50.037 44.786C54.7 44.786 59.144 43.997 60.088 38.279C59.87 36.486 59.98 34.407 60.096 32.207C60.427 25.937 60.769 19.454 53.699 18.342C52.152 18.428 50.493 18.47 48.628 18.471C45.999 18.471 43.292 18.386 40.675 18.303C38.064 18.222 35.364 18.138 32.748 18.138C30.433 18.138 28.407 18.204 26.556 18.34C23.03 18.599 20.23 21.338 19.885 24.858ZM39.673 5.206C39.754 4.042 39.538 2.293 37.617 1.917L4.32 1.899C3.447 1.966 2.832 2.223 2.439 2.684C1.991 3.211 1.814 4.016 1.889 5.206H39.673ZM25.489 64.446C24.783 64.446 24.054 64.419 23.35 64.393C22.649 64.367 21.925 64.34 21.228 64.34C20.767 64.34 20.358 64.352 19.977 64.375L19.944 64.377L19.911 64.371C19.46 64.287 19.145 63.89 19.162 63.428C19.175 63.041 19.455 62.559 20.198 62.473C20.894 62.394 22.197 62.346 23.684 62.346C25.157 62.346 26.443 62.394 27.125 62.473C27.568 62.525 28.096 62.809 28.251 63.254C28.311 63.428 28.36 63.775 28.001 64.132C27.797 64.336 27.453 64.36 27.202 64.378C27.173 64.38 27.145 64.382 27.119 64.384C26.633 64.425 26.099 64.446 25.489 64.446ZM14.776 64.437C14.175 64.437 13.484 64.275 13.347 63.819C13.241 63.464 13.257 63.165 13.396 62.929C13.522 62.716 13.736 62.575 14.031 62.511C14.254 62.463 14.537 62.434 14.807 62.434C15.316 62.434 15.979 62.529 16.251 62.977C16.486 63.365 16.417 63.656 16.317 63.833C16.001 64.394 15.057 64.437 14.776 64.437ZM52.137 37.597C50.593 37.597 48.897 36.465 48.734 34.57C48.702 34.2 48.821 33.839 49.061 33.578C49.25 33.372 49.491 33.258 49.739 33.258C49.97 33.258 50.188 33.356 50.369 33.543C50.54 33.719 50.595 33.983 50.653 34.262C50.753 34.743 50.867 35.288 51.548 35.575C51.759 35.664 51.966 35.708 52.164 35.708C52.904 35.708 53.398 35.076 53.504 34.451C53.597 33.898 53.406 33.206 52.589 32.924C52.253 32.807 51.947 32.764 51.651 32.723C51.062 32.64 50.453 32.555 49.763 31.888C48.742 30.901 48.444 29.545 48.965 28.258C49.492 26.956 50.715 26.115 52.079 26.115C52.537 26.115 53.003 26.209 53.463 26.393C54.207 26.691 54.899 27.409 55.228 28.222C55.487 28.862 55.498 29.508 55.259 30.041L55.221 30.125L55.14 30.168C54.855 30.319 54.615 30.393 54.406 30.393C53.766 30.393 53.613 29.77 53.49 29.27C53.414 28.961 53.335 28.64 53.171 28.465C52.9 28.176 52.555 28.023 52.174 28.023C51.608 28.023 51.033 28.368 50.776 28.863C50.548 29.301 50.599 29.791 50.918 30.245C51.315 30.809 51.779 30.867 52.367 30.941C52.683 30.98 53.011 31.021 53.357 31.144C54.421 31.523 55.178 32.445 55.383 33.611C55.599 34.844 55.155 36.086 54.224 36.852C53.632 37.34 52.91 37.597 52.137 37.597ZM27.889 37.243C27.136 37.243 26.397 36.966 25.754 36.44C25.269 36.044 24.54 34.972 24.492 34.07C24.471 33.686 24.58 33.361 24.806 33.132C24.954 32.982 25.164 32.899 25.398 32.899C25.652 32.899 25.914 32.997 26.097 33.16C26.362 33.395 26.413 33.708 26.463 34.01C26.524 34.386 26.582 34.741 27.039 35.042C27.319 35.226 27.609 35.32 27.902 35.32C28.421 35.32 28.92 35.007 29.172 34.524C29.425 34.039 29.384 33.496 29.061 33.034C28.78 32.634 28.26 32.527 27.658 32.403C26.84 32.234 25.823 32.024 25.095 30.962C24.373 29.909 24.29 28.677 24.869 27.582C25.472 26.44 26.666 25.702 27.911 25.702C28.532 25.702 29.128 25.88 29.682 26.231C30.268 26.604 31.197 27.816 31.263 28.797C31.297 29.297 31.09 29.582 30.911 29.734C30.653 29.952 30.422 30.057 30.204 30.057C29.632 30.057 29.441 29.413 29.272 28.845C29.192 28.576 29.11 28.298 29.011 28.175C28.65 27.724 28.227 27.629 27.936 27.629C27.39 27.629 26.841 27.956 26.571 28.443C26.325 28.886 26.349 29.385 26.639 29.85C26.943 30.338 27.462 30.434 28.119 30.556C28.903 30.703 29.878 30.885 30.594 31.908C31.354 32.993 31.452 34.26 30.866 35.385C30.276 36.514 29.107 37.243 27.889 37.243ZM35.217 37.221C35.011 37.221 34.327 37.142 34.179 36.12C33.918 34.326 34.011 29.616 34.158 27.846C34.263 26.592 34.86 26.457 35.112 26.457C35.353 26.457 35.608 26.562 35.891 26.78L35.932 26.811L39.987 33.713L44.009 26.869C44.123 26.622 44.388 26.481 44.74 26.481C45.117 26.481 45.675 26.663 45.675 27.052V36.642C45.675 36.829 45.561 36.995 45.362 37.095C45.223 37.164 45.043 37.204 44.855 37.204C44.331 37.204 43.767 36.899 43.767 36.231V31.046C43.433 31.608 43.091 32.27 42.733 32.963C42.106 34.178 41.458 35.434 40.791 36.244C40.486 36.615 40.182 36.693 39.98 36.693C39.776 36.693 39.473 36.614 39.179 36.239L39.173 36.232L39.168 36.224C38.584 35.362 38.069 34.383 37.571 33.435C37.098 32.536 36.61 31.607 36.071 30.799V36.642C36.071 36.974 35.62 37.221 35.217 37.221Z" fill="#5F9EC5"/>
</svg>
