<svg width="116" height="90" viewBox="0 0 116 90" fill="none" xmlns="http://www.w3.org/2000/svg">
<path fill-rule="evenodd" clip-rule="evenodd" d="M36.9439 22.303L35.9539 23.882L6.62386 23.873C6.04186 23.747 4.89286 24.571 4.89286 25.058V70.32H77.5399V25.32C77.5399 25.013 76.3859 23.877 76.0719 23.877H51.0989L53.3539 22.288C60.5029 22.938 69.1069 21.472 76.0779 22.297C77.1549 22.425 79.1429 23.759 79.1429 24.796V32.274H95.0349C96.5389 32.274 98.1069 33.58 99.0179 34.657C102.57 38.859 107.086 45.966 110.184 50.714C111.215 52.295 112.36 53.507 112.539 55.485C113.038 60.978 112.155 67.2 112.516 72.772C112.61 73.16 114.641 72.894 114.932 75.437C115.082 76.75 115.168 80.051 114.121 80.938C112.841 82.023 111.541 81.339 110.269 81.33C109.264 81.322 103.508 81.211 103.162 81.454C102.657 84.841 101.293 87.745 97.9759 89.216C92.0959 91.824 85.6849 87.619 85.8179 81.341H33.3379C32.3299 81.449 32.7949 82.542 32.6059 83.246C29.8619 93.484 15.9659 91.456 15.5739 81.343C13.4339 81.455 11.1459 81.188 9.02386 81.33C6.38686 81.508 7.80786 82.093 6.88885 83.171C6.18885 83.992 1.46686 83.909 0.633855 83.295C-0.143145 82.721 -0.0771449 77.85 0.157855 76.815C0.450855 75.525 1.90385 75.538 3.02485 75.569L3.02286 25.844C2.97586 24.721 4.40585 22.303 5.56085 22.303H36.9439ZM110.926 59.825V55.233C110.926 53.245 98.7149 38.183 97.2669 35.066C96.9319 34.596 95.2279 33.848 94.7669 33.848H79.1429V79.767H86.0869C88.0819 71.009 100.681 71.068 102.646 79.767H113.063C113.318 78.692 113.856 74.917 112.607 74.569C112.05 74.415 110.926 74.785 110.926 73.862V67.434C106.36 67.887 105.415 66.613 105.838 62.304C106.159 59.034 108.356 59.913 110.926 59.825ZM110.926 61.399L107.759 61.436C107.404 61.654 107.089 65.39 107.987 65.73L110.926 65.86V61.399ZM77.5399 71.895H5.02685L4.68986 72.277L4.49886 77.144L1.95486 77.405V81.866L5.42686 81.865C5.40086 81.128 5.39486 79.939 6.36186 79.767C7.91586 79.489 15.2169 80.106 15.8069 79.731C17.9099 71.031 30.5629 70.974 32.4029 79.767H77.5399V71.895ZM23.2579 74.85C13.5899 76.121 16.9499 91.071 26.4539 87.96C34.1939 85.425 31.4109 73.778 23.2579 74.85ZM93.5009 74.849C84.9509 75.87 85.9409 88.71 94.6979 88.356C103.858 87.987 103.072 73.706 93.5009 74.849ZM63.3829 39.885C66.1449 39.547 67.7029 41.377 67.9359 43.939C68.1619 46.426 68.2839 53.955 67.8629 56.221C67.5649 57.83 66.3219 58.787 64.7569 59.073C64.6189 59.964 64.8209 60.884 64.6949 61.778C64.5109 63.095 63.4059 63.107 62.1799 62.981C59.8069 62.736 60.7049 60.508 59.7369 59.026L23.7089 58.842C22.4289 60.955 23.6119 63.455 19.9979 62.947C17.7949 62.638 19.3349 59.934 18.6649 59.021C18.3409 58.58 16.2279 58.678 15.7029 56.684L15.6919 42.489C16.2599 40.652 17.8549 39.661 19.8119 39.847C20.4669 38.999 19.8049 38.102 19.8489 37.39C19.9899 35.12 20.5109 33.576 22.7799 32.66C27.8899 32.886 34.2479 31.934 39.2199 32.53C40.1999 32.648 41.1539 33.51 41.6639 33.539C41.9199 33.553 43.3099 32.639 44.2879 32.536C47.3459 32.211 57.3719 32.125 60.2489 32.599C63.8309 33.19 63.4869 37.163 63.3829 39.885ZM23.5889 42.638C23.8329 43.835 23.4109 45.684 23.5889 46.968H40.9499V35.816C40.9499 34.89 39.5519 34.199 38.6859 34.103C33.9729 33.588 28.1349 34.397 23.3129 34.239C21.2789 34.611 21.4889 38.161 21.7059 39.766C21.8559 40.875 23.3729 41.576 23.5889 42.638ZM59.9129 46.968V42.376C59.9129 41.654 61.6579 40.53 61.7959 39.503C62.1509 36.879 62.0709 34.383 58.9879 34.1C55.6919 33.798 48.0599 33.747 44.8229 34.111C44.2649 34.173 42.5519 34.733 42.5519 35.292V46.968C42.9539 46.776 43.2829 46.701 43.7389 46.69C48.2439 46.58 52.8749 46.549 57.3749 46.591C58.1789 46.599 59.1569 46.679 59.9129 46.968ZM21.9869 57.201V43.163C21.9869 42.566 20.9499 41.585 20.2329 41.473C18.1229 41.146 17.3519 42.008 17.1689 43.94C16.9019 46.753 16.9059 52.429 17.1659 55.246C17.4169 57.957 19.9009 57.374 21.9869 57.201ZM61.5149 57.201H65.3879C65.4339 57.201 65.8589 56.796 65.9179 56.672L66.0009 42.693C65.4249 40.759 61.5149 41.353 61.5149 42.901V57.201ZM24.3109 48.332C23.1179 48.677 23.2179 52.046 24.7979 52.209C27.2309 51.819 38.9669 52.862 40.2639 51.936C40.9789 51.426 40.9609 49.041 40.3089 48.515L24.3109 48.332ZM43.5469 48.338C42.0679 48.652 41.9089 51.915 43.7719 52.198C46.0339 52.541 56.1739 52.547 58.4269 52.199C60.4899 51.881 60.4379 48.605 58.7039 48.287L43.5469 48.338ZM59.9129 53.528C59.4189 53.6 58.9709 53.788 58.4579 53.804C54.1779 53.935 48.1669 54.165 44.0109 53.8C42.9949 53.71 41.9429 53.009 41.6149 53.007C41.2279 53.004 40.6379 53.689 39.7549 53.797C35.9249 54.26 29.1109 53.928 25.0439 53.804C24.5309 53.788 24.0829 53.6 23.5889 53.528V57.201H59.9129V53.528ZM21.4509 61.4L21.9439 59.161L20.3849 58.774L20.1469 60.985L21.4509 61.4ZM63.1189 59.036L61.7809 59.038L62.0679 61.381L63.1169 61.4L63.1189 59.036ZM59.9129 0C59.8689 0.249 60.1189 0.514 60.1159 0.701C60.1019 1.702 54.0669 8.028 53.5029 9.706C54.6159 9.686 55.7369 9.737 56.8519 9.72C57.7799 9.706 59.8509 8.854 59.7889 10.502L41.2449 27.164C40.2769 27.183 40.2429 26.829 40.5369 25.967L47.3599 14.431H41.3499C40.3769 14.431 41.5439 12.008 41.7049 11.631C43.3549 7.751 45.5269 3.749 47.4929 0H59.9129ZM42.8189 13.119H48.8289L49.2059 13.55L49.1129 14.443L44.4249 21.914L44.8189 22.301L56.9749 11.02H51.6329C51.5669 11.02 51.2959 9.956 51.4939 9.726L57.7739 1.312L48.3369 1.616L42.8189 13.119ZM37.6109 10.233C38.1139 10.233 38.1139 8.921 37.6109 8.921H11.4369L11.0549 9.342L11.3029 10.233H37.6109ZM41.8849 3.148C41.9529 3.148 42.6399 2.503 42.5529 2.237C42.2839 1.054 36.8639 1.859 35.7279 1.848C33.9359 1.832 32.0429 1.558 30.1199 1.561C29.2539 1.562 26.1779 1.591 25.5829 1.804C25.3399 1.891 25.0259 1.991 24.9399 2.246C24.8179 2.56 25.0439 3.07 25.3249 3.148H41.8849ZM40.8159 17.843C40.8849 17.843 41.5449 17.23 41.4619 16.96C41.4359 16.821 40.8639 16.268 40.8159 16.268H25.5919C25.4029 16.268 24.7739 17.09 24.9119 17.422C24.9509 17.57 25.5259 17.832 25.5919 17.843H40.8159ZM21.3189 17.843C21.3879 17.843 22.0479 17.23 21.9639 16.96C21.9389 16.821 21.3669 16.268 21.3189 16.268H17.0459C17.0049 16.268 16.3889 16.547 16.3649 16.689C16.2729 17.05 16.7549 17.762 17.0459 17.843C17.7549 18.038 20.3359 17.843 21.3189 17.843ZM16.3999 2.456C16.4249 2.596 16.9979 3.148 17.0459 3.148H21.3189C22.0519 3.148 22.1399 1.574 21.0519 1.574H17.0459L16.3999 2.456ZM4.09285 9.319C3.84485 10.483 6.85085 10.306 7.52085 10.194C8.97885 8.338 4.21585 8.744 4.09285 9.319ZM83.2829 36.735H95.3019L106.45 52.545C106.786 52.887 106.68 54.052 106.252 54.052H83.2829L82.8819 53.659V37.128L83.2829 36.735ZM94.6339 38.309H84.4849V52.478H104.249L94.6339 38.309ZM83.1489 57.464C82.9629 58.115 82.8429 58.706 83.6599 58.922C84.6359 59.181 91.1739 59.562 89.9639 57.721L89.6929 57.464H83.1489Z" fill="#5F9EC5"/>
</svg>
