<svg width="60" height="60" viewBox="0 0 60 60" fill="none" xmlns="http://www.w3.org/2000/svg">
<path d="M36.543 58.606C34.433 59.084 32.237 59.336 29.982 59.336C13.699 59.336 0.5 46.165 0.5 29.918C0.5 13.671 13.699 0.5 29.982 0.5C46.265 0.5 59.465 13.671 59.465 29.918C59.465 32.079 59.231 34.185 58.788 36.213" stroke="#EC4D76"/>
<path fill-rule="evenodd" clip-rule="evenodd" d="M38.492 21.786L34.444 17.716C33.018 16.282 31.127 15.5 29.109 15.5H22.719C19.843 15.5 17.5 17.856 17.5 20.748V38.24C17.5 41.133 19.843 43.489 22.719 43.489H35.476C38.353 43.489 40.695 41.133 40.695 38.24V27.15C40.695 25.121 39.907 23.22 38.492 21.786ZM37.668 22.614C38.306 23.255 38.793 24.013 39.107 24.83H33.157C32.194 24.83 31.417 24.048 31.417 23.08V17.098C32.241 17.413 32.983 17.903 33.621 18.544L37.668 22.614ZM39.536 38.24C39.536 40.491 37.715 42.322 35.476 42.322H22.719C20.481 42.322 18.66 40.491 18.66 38.24V20.748C18.66 18.497 20.481 16.666 22.719 16.666H29.109C29.492 16.666 29.875 16.701 30.258 16.771V23.08C30.258 24.69 31.557 25.996 33.157 25.996H39.431C39.501 26.369 39.536 26.754 39.536 27.15V38.24ZM23.264 30.66H22.139C21.501 30.66 20.98 31.185 20.98 31.826V37.074C20.98 37.401 21.235 37.657 21.559 37.657C21.884 37.657 22.139 37.401 22.139 37.074V35.325H23.264C24.552 35.325 25.595 34.252 25.595 32.969C25.595 31.687 24.552 30.66 23.264 30.66ZM23.264 34.159H22.139V31.826H23.264C23.914 31.826 24.436 32.34 24.436 32.969C24.436 33.599 23.902 34.159 23.264 34.159ZM29.098 30.66C29.098 30.66 28.506 30.66 27.938 30.66C27.3 30.66 26.778 31.185 26.778 31.826V36.491C26.778 37.133 27.3 37.657 27.938 37.657C28.495 37.657 29.063 37.657 29.098 37.657C30.385 37.657 31.417 36.619 31.417 35.349V32.981C31.417 31.71 30.385 30.672 29.098 30.672V30.66ZM30.258 35.349C30.258 35.966 29.759 36.468 29.144 36.491H27.938V31.826H29.144C29.759 31.85 30.258 32.363 30.258 32.969V35.337V35.349ZM37.216 31.243C37.216 31.57 36.961 31.826 36.636 31.826H33.737V34.159H35.476C35.801 34.159 36.056 34.415 36.056 34.742C36.056 35.068 35.801 35.325 35.476 35.325H33.737V37.074C33.737 37.401 33.482 37.657 33.157 37.657C32.832 37.657 32.577 37.401 32.577 37.074V31.826C32.577 31.185 33.099 30.66 33.737 30.66H36.636C36.961 30.66 37.216 30.917 37.216 31.243Z" fill="#EC4D76"/>
<path fill-rule="evenodd" clip-rule="evenodd" d="M57.917 54.04H45.56C44.423 54.04 43.5 54.02 43.5 52.885V50.145C43.5 49.767 43.808 49.46 44.187 49.46C44.566 49.46 44.873 49.767 44.873 50.145V52.885C44.873 53.263 45.181 53.57 45.56 53.57H57.917C58.296 53.57 58.603 53.263 58.603 52.885V50.145C58.603 49.767 58.91 49.46 59.29 49.46C59.669 49.46 59.076 49.767 59.076 50.145V52.885C59.076 54.02 59.054 54.04 57.917 54.04ZM53.195 50.914L53.194 50.915C52.389 51.717 51.086 51.716 50.282 50.914L48.077 48.717C47.809 48.45 47.809 48.016 48.077 47.748C48.345 47.48 48.78 47.48 49.048 47.748L51.046 49.74L51.052 39.185C51.052 38.807 51.359 38.5 51.738 38.5C52.117 38.5 52.425 38.807 52.425 39.185L52.42 49.753L54.429 47.748C54.69 47.511 55.089 47.51 55.35 47.747C55.632 48.001 55.654 48.433 55.399 48.714L53.195 50.914Z" fill="#EC4D76"/>
</svg>
