<svg width="92" height="93" viewBox="0 0 92 93" fill="none" xmlns="http://www.w3.org/2000/svg">
<path fill-rule="evenodd" clip-rule="evenodd" d="M91.843 91.571V92.898H0V91.571H38.846C39.469 91.571 39.159 89.526 38.981 89.108C38.801 88.687 36.934 88.836 36.6 86.372C36.301 84.168 36.428 79.686 36.567 77.361C36.617 76.533 36.83 75.631 37.11 74.852L18.288 87.59H0V85.998H17.754L39.926 70.88C40.651 70.06 40.174 68.553 41.817 67.717C42.949 67.142 43.94 67.704 45.006 67.172L74.355 47.245H91.843V48.838H74.889L48.058 67.15L56.454 67.429C58.069 68.547 57.672 67.842 58.722 67.535C60.063 67.143 70.938 67.2 72.759 67.412C75.623 67.744 75.387 71.121 75.29 73.256C77.259 73.125 78.739 74.4 79.004 76.333C79.276 78.321 79.275 84.383 79.004 86.372C78.821 87.712 78.137 88.875 76.652 88.944L76.467 91.03L76.758 91.571H91.843ZM74.223 91.042H75.021V88.916L73.956 88.919L74.223 91.042ZM43.385 91.306C53.047 90.777 63.178 91.701 72.887 91.306L72.468 89.172L43.22 89.335L42.713 91.435C42.858 91.845 43.305 91.31 43.385 91.306ZM40.582 91.042L41.376 91.039L41.648 88.917L40.582 88.916V91.042ZM38.166 76.827C38.043 78.191 38.001 86.171 38.356 86.998C38.542 87.433 38.947 87.503 39.395 87.565C40.22 87.679 41.088 87.543 41.916 87.59V76.309C41.916 74.792 38.459 73.57 38.166 76.827ZM57.134 69.939C57.134 69.419 56.176 68.845 55.649 68.762C53.657 68.445 45.425 68.458 43.37 68.73C41.366 68.997 41.251 72.081 41.704 73.601C41.885 74.21 42.98 74.622 43.195 75.569C43.436 76.631 43.138 77.991 43.254 79.096L57.134 78.698V69.939ZM55.649 80.175C52.316 79.657 47.714 80.478 44.242 80.214C42.646 81.035 42.867 83.34 44.735 83.593L56.74 83.085C57.529 81.909 57.159 80.409 55.649 80.175ZM55.947 84.949C52.485 85.205 47.974 85.039 44.437 84.951C43.983 84.94 43.654 84.866 43.254 84.67L43.251 87.59H72.353L72.351 84.671C71.858 84.743 71.411 84.934 70.898 84.949C65.9 85.104 60.687 84.6 55.947 84.949ZM70.634 80.141C67.097 79.8 62.85 80.334 59.247 80.274C58.113 80.584 58.44 82.436 58.736 83.343H71.685C72.332 83.343 73.311 80.401 70.634 80.141ZM72.882 68.882C68.944 68.975 64.037 68.285 60.2 68.74C59.499 68.823 58.635 69.174 58.469 69.939C57.951 72.339 58.855 76.494 58.469 79.096C58.665 79.167 58.789 78.831 58.87 78.831H71.952C72.009 78.831 72.254 79.228 72.35 79.096C72.443 77.886 72.168 76.558 72.478 75.372C72.73 74.414 73.813 73.825 73.949 73.119C74.161 72.015 74.097 69.426 72.882 68.882ZM77.371 86.873C77.219 83.585 77.758 79.783 77.442 76.559C77.316 75.27 76.81 74.747 75.428 74.835C73.834 74.938 73.954 75.618 73.954 76.84V87.59C74.911 87.471 77.028 88.037 77.371 86.873ZM66.47 42.285L66.479 39.283H59.671C59.57 39.283 58.736 38.68 58.736 38.619V34.77H51.928C51.651 34.77 50.994 34.117 50.994 33.841V29.993H43.919L43.518 29.595V25.215H36.043C36.129 24.954 35.776 24.639 35.776 24.552V20.437H28.967L28.567 20.039V15.394H0V13.802H21.892V1.592H0V0H23.094L65.355 26.33L65.448 37.255L65.848 37.654L67.697 37.938L67.814 41.141H91.843V42.733H67.146C67.072 42.733 66.523 42.461 66.47 42.285ZM41.79 13.533L23.494 2.123V13.802H29.501L29.902 14.2V18.845H36.71C36.757 18.845 37.377 19.461 37.377 19.508V23.623H41.649V13.935C41.649 13.879 41.873 13.745 41.79 13.533ZM63.809 27.073L43.251 14.598V23.623C43.682 23.45 44.853 23.923 44.853 24.286V28.4H52.329C52.242 28.661 52.596 28.976 52.596 29.064V33.178H59.671C60.634 33.98 59.642 36.661 60.188 37.441L63.809 37.69V27.073ZM0 20.97V19.376H20.958L63.15 46.175L63.543 47.509L60.338 47.511V51.89L59.938 52.288H53.397C53.221 53.292 53.751 56.322 53.136 56.94C52.098 57.984 47.793 56.535 46.188 57.331V61.711L45.788 62.109H38.979C39.465 63.577 39.343 65.398 38.979 66.887H32.171L31.771 67.285V71.664C31.509 71.578 31.192 71.93 31.103 71.93H24.829V76.044C24.829 76.132 24.476 76.447 24.562 76.708H17.621V81.087C17.621 81.148 16.787 81.751 16.686 81.751H0V80.158H16.019V75.778C16.916 74.789 18.303 75.172 19.491 75.116C19.832 71.221 19.029 66.569 19.485 62.768C19.537 62.334 19.583 61.927 19.904 61.592C29.375 54.611 39.506 48.364 48.942 41.357C49.286 41.101 50.555 40.339 50.459 39.949L20.025 20.814C13.362 21.28 6.66 20.137 0 20.97ZM40.314 49.369L21.091 62.773V75.115H23.227V70.736L23.628 70.337H30.035L30.415 69.906L30.434 65.558L37.644 65.294V60.915C38.28 60.187 39.435 60.615 40.314 60.516V49.369ZM41.916 48.174V60.516H44.586V56.403C44.586 56.314 44.94 56 44.853 55.738H51.795V51.359C51.795 51.312 52.415 50.696 52.462 50.696H59.003V46.582C59.003 46.161 60.141 46.394 60.069 45.922L52.197 41.15L41.916 48.174ZM32.402 45.67C32.08 45.76 31.237 45.543 31.237 45.254V37.159C30.742 37.725 27.423 40.825 27.805 38.411C27.935 37.586 31.263 34.413 32.158 34.491C32.616 34.532 36.047 37.926 36.183 38.458C36.403 39.314 35.619 39.471 34.901 39.226C34.056 38.938 33.736 37.49 32.839 37.159V44.989C32.839 45.038 32.565 45.618 32.402 45.67Z" fill="#EC4D76"/>
</svg>
