<svg width="48" height="46" viewBox="0 0 48 46" fill="none" xmlns="http://www.w3.org/2000/svg">
<path fill-rule="evenodd" clip-rule="evenodd" d="M18.4315 45.954C16.0645 45.954 14.1485 45.157 12.5735 43.517C12.3375 43.271 12.0995 43.03 11.8495 42.775C11.7295 42.654 11.6085 42.531 11.4835 42.403L11.2645 42.179L11.1085 42.45C11.0545 42.546 11.0045 42.633 10.9585 42.714C10.8685 42.872 10.7915 43.008 10.7115 43.141C10.1945 43.996 9.46154 44.704 8.59154 45.189C7.73254 45.667 6.75654 45.92 5.76854 45.92C5.27654 45.92 4.78254 45.857 4.30054 45.734C3.11254 45.429 2.03154 44.733 1.25654 43.771C0.473544 42.799 0.0385444 41.594 0.0305444 40.378C-0.0084556 34.026 -0.0104556 27.427 0.0265444 20.762C0.0335444 19.482 0.464544 18.276 1.27154 17.277C2.05954 16.301 3.16554 15.603 4.38654 15.31C4.84554 15.2 5.31454 15.144 5.78054 15.144C6.80754 15.144 7.81454 15.417 8.69454 15.933C9.58654 16.456 10.3285 17.219 10.8415 18.141C10.8925 18.233 10.9415 18.327 10.9775 18.395C10.9905 18.42 11.0025 18.442 11.0105 18.458L11.1555 18.73L11.3805 18.52C11.6175 18.3 11.8695 18.082 12.1125 17.872C12.6585 17.402 13.2215 16.916 13.6745 16.344C15.8365 13.605 17.9235 10.803 19.4995 8.667C20.5545 7.238 21.5985 5.765 22.6085 4.34C23.1585 3.565 23.7275 2.762 24.2915 1.977C25.1935 0.72 26.4965 0 27.8685 0C29.3675 0 30.7235 0.83 31.5895 2.278C32.5365 3.862 32.6645 5.557 31.9685 7.316C31.3815 8.8 30.7785 10.306 30.1955 11.764C29.8755 12.563 29.5555 13.363 29.2365 14.163C29.1855 14.291 29.1405 14.418 29.0885 14.565C29.0635 14.636 29.0365 14.713 29.0065 14.795L28.8905 15.113H29.9985C31.2485 15.113 32.4975 15.112 33.7475 15.111C34.9975 15.111 36.2475 15.11 37.4965 15.11C39.5135 15.11 41.1665 15.112 42.6995 15.115C43.9415 15.118 45.0555 15.476 45.9215 16.15C46.7985 16.833 47.3485 17.79 47.5105 18.918C47.8775 21.456 47.6835 23.454 46.9005 25.207C45.7775 27.719 44.6445 30.276 43.5475 32.749C42.1775 35.842 40.7595 39.039 39.3515 42.177C38.2345 44.665 36.2705 45.932 33.5115 45.943C32.0705 45.95 30.4975 45.952 28.5635 45.952C27.5045 45.952 26.4465 45.952 25.3875 45.951C24.3295 45.95 23.2705 45.949 22.2125 45.949C20.7745 45.949 19.5825 45.951 18.4615 45.954H18.4315ZM27.8645 1.961C27.0715 1.961 26.3095 2.396 25.8255 3.126C24.9705 4.414 24.0455 5.689 23.1505 6.922C22.6365 7.631 22.1035 8.364 21.5905 9.093L21.3165 9.481C18.4985 13.482 15.5835 17.619 11.8845 20.996C11.6445 21.216 11.5565 21.628 11.5545 21.915C11.5415 24.183 11.5425 26.488 11.5435 28.717C11.5435 29.325 11.5445 29.934 11.5445 30.542C11.5445 31.177 11.5435 31.813 11.5435 32.448C11.5415 34.632 11.5395 36.891 11.5595 39.113C11.5625 39.457 11.7285 39.87 11.9715 40.143C12.3035 40.514 12.6625 40.867 13.0095 41.209C13.2825 41.477 13.5655 41.756 13.8305 42.038C15.0645 43.355 16.5835 43.996 18.4755 43.996H18.5325C21.0315 43.979 23.5435 43.97 26.0005 43.97C28.4405 43.97 30.8955 43.979 33.2965 43.995H33.3465C35.4255 43.995 36.8465 43.062 37.6895 41.142C39.9935 35.902 42.2525 30.779 44.5665 25.725C45.3655 23.979 45.7495 22.186 45.7405 20.243C45.7315 18.329 44.4685 17.043 42.5995 17.043C42.5805 17.043 42.5615 17.043 42.5425 17.043C40.6935 17.067 38.6865 17.078 36.2275 17.078C34.7975 17.078 33.3425 17.075 31.9365 17.071C30.5915 17.068 29.2015 17.064 27.8335 17.064C27.4095 17.064 26.8535 16.99 26.6175 16.641C26.3805 16.291 26.5195 15.747 26.6775 15.352C27.0255 14.48 27.3735 13.608 27.7215 12.737C28.5215 10.734 29.3485 8.662 30.1675 6.626C30.6255 5.487 30.5595 4.379 29.9715 3.334C29.4815 2.461 28.7135 1.961 27.8645 1.961ZM5.77754 17.061C5.32954 17.061 4.88854 17.139 4.46654 17.292C2.93954 17.848 1.94654 19.235 1.93854 20.828C1.92554 23.124 1.92854 25.459 1.93154 27.717C1.93254 28.653 1.93354 29.589 1.93354 30.526C1.93354 31.484 1.93154 32.443 1.92954 33.402C1.92654 35.638 1.92254 37.95 1.93954 40.224C1.95654 42.324 3.63454 43.974 5.76154 43.981H5.77454C7.88154 43.981 9.60254 42.307 9.60954 40.249C9.63154 34.039 9.62254 27.726 9.61454 21.619L9.61354 20.798C9.61254 19.89 9.28254 19.062 8.63454 18.336C7.90954 17.526 6.86854 17.061 5.77754 17.061Z" fill="#EC4D76"/>
</svg>
