<svg width="78" height="42" viewBox="0 0 78 42" fill="none" xmlns="http://www.w3.org/2000/svg">
<path fill-rule="evenodd" clip-rule="evenodd" d="M66.986 41.736C66.862 41.736 66.737 41.732 66.615 41.724C63.865 41.549 61.644 39.837 60.817 37.257C60.766 37.1 60.718 36.943 60.662 36.761C60.634 36.671 60.604 36.576 60.572 36.472L60.503 36.248H56.337C55.08 36.248 53.822 36.249 52.565 36.249C51.308 36.25 50.051 36.25 48.794 36.25C45.9 36.25 42.466 36.248 38.947 36.235H38.931C38.303 36.235 37.867 36.392 37.638 37.171C36.843 39.874 34.4 41.708 31.559 41.734C31.54 41.734 31.522 41.734 31.504 41.734C28.748 41.734 26.263 39.868 25.463 37.196C25.252 36.494 24.911 36.233 24.204 36.233H24.171C22.828 36.247 21.355 36.253 19.538 36.253C18.592 36.253 17.645 36.252 16.699 36.25C16.056 36.249 15.413 36.248 14.77 36.247C13.71 36.246 13.452 35.985 13.45 34.915C13.449 33.116 13.449 31.352 13.449 29.483C13.45 28.721 13.45 26.874 13.45 26.874L13.146 26.859C13.05 26.854 12.957 26.849 12.866 26.844C12.671 26.832 12.487 26.821 12.297 26.821C10.796 26.819 9.295 26.819 7.793 26.819C6.593 26.819 5.393 26.819 4.192 26.818H4.187C4.138 26.818 4.089 26.818 4.039 26.819C3.992 26.819 3.945 26.82 3.898 26.82C3.771 26.82 3.622 26.817 3.488 26.791C3.036 26.708 2.801 26.442 2.767 25.977C2.736 25.551 2.93 25.254 3.327 25.117C3.584 25.028 3.899 25.016 4.201 25.015C7.305 25.011 10.363 25.01 12.68 25.01C13.978 25.01 15.276 25.011 16.574 25.011H18.65C18.691 25.011 18.731 25.011 18.771 25.01C18.809 25.01 18.847 25.01 18.884 25.01C18.964 25.01 19.059 25.011 19.15 25.021C19.732 25.086 20.078 25.427 20.076 25.934C20.073 26.474 19.704 26.802 19.089 26.812C18.685 26.819 18.249 26.822 17.717 26.822C17.377 26.822 17.035 26.821 16.69 26.82C16.338 26.819 15.984 26.817 15.625 26.817H15.306V34.389L15.604 34.408C15.661 34.412 15.714 34.416 15.766 34.42C15.878 34.43 15.984 34.438 16.095 34.438C16.43 34.438 16.764 34.438 17.099 34.438C17.568 34.438 19.446 34.438 19.915 34.438C21.236 34.438 22.795 34.439 24.351 34.447H24.366C24.851 34.447 25.211 34.316 25.398 33.677C26.237 30.806 28.659 28.95 31.567 28.95H31.577C34.443 28.955 36.848 30.801 37.705 33.656C37.805 33.991 37.943 34.449 38.641 34.449H38.646C42.911 34.436 47.247 34.434 51.44 34.432C52.884 34.432 54.329 34.431 55.773 34.43C55.85 34.43 55.911 34.412 55.975 34.393C56.002 34.385 56.035 34.375 56.079 34.364L56.319 34.302V1.868H15.31V6.253H16.502C17.064 6.253 17.626 6.253 18.188 6.252C18.75 6.252 19.312 6.251 19.874 6.251C20.888 6.251 21.714 6.253 22.471 6.257C23.022 6.259 23.679 6.417 23.677 7.154C23.676 7.939 22.919 8.057 22.469 8.058C20.53 8.061 18.433 8.062 15.871 8.062C14.321 8.062 12.772 8.062 11.222 8.061C10.206 8.061 9.19 8.061 8.174 8.061C8.055 8.061 7.94 8.059 7.833 8.045C7.294 7.977 6.956 7.639 6.95 7.164C6.944 6.645 7.305 6.287 7.848 6.273C8.624 6.254 9.377 6.251 10.012 6.251C10.3 6.251 10.589 6.252 10.877 6.253C11.166 6.253 11.455 6.254 11.744 6.254C11.87 6.254 11.996 6.254 12.122 6.253C12.232 6.253 12.341 6.253 12.456 6.253H13.45L13.449 4.789C13.449 3.972 13.449 3.178 13.45 2.384C13.451 1.512 13.628 0.91 13.99 0.545C14.353 0.18 14.949 0.002 15.814 0.002C22.479 0.001 29.144 0 35.809 0C42.474 0 49.139 0.001 55.804 0.002C57.553 0.002 58.205 0.662 58.207 2.439C58.208 4.095 58.208 5.778 58.208 7.406C58.207 8.12 58.207 8.834 58.207 9.548V10.782H58.526C59.398 10.782 60.268 10.784 61.11 10.786C61.929 10.788 62.776 10.791 63.601 10.791C64.947 10.791 66.047 10.784 67.064 10.771C67.087 10.771 67.11 10.771 67.133 10.771C68.539 10.771 69.511 11.349 70.192 12.59C72.145 16.154 74.167 19.757 76.123 23.242L76.436 23.8C77.18 25.125 77.532 26.481 77.514 27.944C77.498 29.241 77.501 30.558 77.504 31.832C77.506 32.588 77.508 33.371 77.506 34.139C77.503 35.092 77.181 36.227 75.662 36.227C75.596 36.227 75.527 36.225 75.458 36.221C75.305 36.211 75.169 36.207 75.04 36.207C73.777 36.207 73.1 36.71 72.626 38.001C72.222 39.102 71.449 40.044 70.39 40.726C69.378 41.377 68.169 41.736 66.986 41.736ZM66.891 30.758C65.675 30.758 64.535 31.228 63.682 32.083C62.829 32.937 62.36 34.078 62.36 35.296C62.362 37.87 64.354 39.903 66.895 39.925H66.933C68.13 39.925 69.258 39.45 70.112 38.587C70.965 37.724 71.434 36.583 71.433 35.374C71.431 32.79 69.44 30.762 66.9 30.758H66.891ZM31.542 30.758C29.155 30.758 27.116 32.722 26.996 35.136C26.936 36.355 27.386 37.574 28.232 38.481C28.826 39.117 29.884 39.883 31.555 39.917C31.584 39.918 31.613 39.918 31.642 39.918C34.096 39.918 36.094 37.876 36.096 35.366C36.098 34.112 35.623 32.945 34.759 32.08C33.907 31.228 32.765 30.758 31.542 30.758ZM59.221 12.592C59.074 12.592 58.929 12.604 58.789 12.615C58.725 12.62 58.66 12.625 58.594 12.63L58.295 12.649V34.401L58.598 34.417C58.904 34.433 59.146 34.446 59.352 34.446C60.379 34.446 60.543 34.038 60.982 32.947C61.457 31.766 62.266 30.764 63.323 30.049C64.379 29.334 65.612 28.954 66.887 28.95H66.905C68.173 28.95 69.402 29.326 70.458 30.038C71.515 30.75 72.327 31.748 72.805 32.925C73.255 34.03 73.423 34.443 74.476 34.443C74.721 34.443 75.021 34.424 75.401 34.4L75.7 34.381V34.082C75.7 33.469 75.706 32.849 75.713 32.25C75.729 30.805 75.745 29.31 75.665 27.848C75.604 26.723 75.325 25.645 74.881 24.811C73.541 22.299 72.128 19.774 70.762 17.331C70.05 16.059 69.314 14.744 68.597 13.447C68.266 12.847 67.81 12.58 67.119 12.58H67.094C65.721 12.592 64.368 12.594 63.342 12.594C62.77 12.594 62.198 12.593 61.625 12.593C61.053 12.592 60.48 12.591 59.908 12.591C59.679 12.591 59.45 12.592 59.221 12.592ZM31.386 21.281C31.334 21.281 31.282 21.279 31.23 21.278C31.174 21.277 31.117 21.276 31.061 21.276C26.695 21.277 22.33 21.277 17.965 21.277H10.349C10.314 21.277 10.279 21.277 10.245 21.277C10.212 21.278 10.179 21.278 10.147 21.278C10.081 21.278 10.032 21.277 9.986 21.274C9.363 21.237 9.006 20.905 9.007 20.366C9.007 19.819 9.37 19.485 9.977 19.473C10.333 19.467 10.719 19.464 11.19 19.464C11.495 19.464 11.803 19.465 12.117 19.466C12.447 19.468 12.784 19.469 13.131 19.469H13.45V13.03C13.45 12.952 13.449 12.875 13.448 12.798C13.447 12.618 13.446 12.449 13.452 12.278C13.474 11.66 13.808 11.266 14.324 11.25C14.334 11.249 14.345 11.249 14.355 11.249C14.878 11.249 15.247 11.672 15.252 12.277C15.264 13.692 15.262 15.132 15.26 16.524C15.259 17.094 15.258 17.664 15.259 18.235V19.468H21.211C24.465 19.468 27.718 19.468 30.972 19.469C31.039 19.469 31.106 19.467 31.174 19.465C31.236 19.464 31.298 19.462 31.36 19.462C31.462 19.462 31.543 19.467 31.613 19.477C32.153 19.555 32.413 19.828 32.432 20.336C32.452 20.84 32.211 21.133 31.675 21.256C31.579 21.278 31.47 21.281 31.386 21.281ZM5.06 14.837C3.505 14.837 2.226 14.825 1.034 14.801C0.802 14.797 0.538 14.652 0.258 14.499C0.174 14.453 0.087 14.406 0 14.361V13.413C0.096 13.378 0.19 13.34 0.283 13.304C0.616 13.172 0.93 13.047 1.225 13.041C2.319 13.02 3.51 13.011 4.974 13.011C5.793 13.011 6.625 13.014 7.431 13.017C7.929 13.018 8.427 13.02 8.926 13.021C9.37 13.022 9.704 13.124 9.891 13.314C10.032 13.457 10.1 13.662 10.096 13.925C10.086 14.518 9.705 14.82 8.962 14.823L8.152 14.827C7.138 14.831 6.09 14.837 5.06 14.837Z" fill="#EC4D76"/>
</svg>
