<svg width="56" height="53" viewBox="0 0 56 53" fill="none" xmlns="http://www.w3.org/2000/svg">
<path fill-rule="evenodd" clip-rule="evenodd" d="M26.9079 52.3C25.8959 52.3 25.0029 52.294 24.1809 52.282C23.0539 52.265 22.1729 51.384 22.1329 50.232C22.1019 49.371 22.1109 48.513 22.1249 47.713C22.1479 46.413 23.0049 45.522 24.2569 45.497C25.2309 45.477 26.2469 45.466 27.2759 45.466C28.2969 45.466 29.3689 45.476 30.4629 45.496C31.5409 45.515 32.3269 46.194 32.5669 47.311C32.5869 47.405 32.6119 47.494 32.6409 47.595C32.6539 47.644 32.6679 47.695 32.6839 47.752L32.7389 47.959H33.5269C34.3829 47.959 35.2399 47.959 36.0959 47.959C36.9529 47.96 37.8089 47.96 38.6649 47.96C39.7159 47.96 40.7659 47.96 41.8159 47.958C46.4029 47.951 49.7419 44.609 49.7539 40.012C49.7549 39.676 49.7549 39.341 49.7549 38.986L49.7539 38.183L47.8429 38.184C47.5179 38.184 47.1949 38.184 46.8719 38.183C46.2699 38.183 45.9139 38.095 45.7189 37.899C45.5239 37.704 45.4369 37.347 45.4369 36.742C45.4359 32.959 45.4359 29.176 45.4369 25.394C45.4369 24.799 45.5199 24.45 45.7059 24.264C45.8919 24.078 46.2409 23.995 46.8379 23.994C47.1629 23.994 47.4889 23.994 47.8199 23.994H49.7929L49.7819 23.705C49.4849 15.681 46.1479 9.564 39.8639 5.524C36.0039 3.042 32.0169 1.783 28.0119 1.783C24.2199 1.783 20.4089 2.914 16.6869 5.144C10.0289 9.133 6.48691 15.377 6.15791 23.704L6.14691 23.994H6.43691C6.74391 23.994 7.04191 23.994 7.33491 23.993C7.61691 23.993 7.89291 23.993 8.16591 23.993C8.51591 23.993 8.86191 23.993 9.20691 23.994C10.2159 23.998 10.5079 24.282 10.5079 25.264C10.5119 29.209 10.5119 33.124 10.5079 36.898C10.5079 37.842 10.1969 38.176 9.31991 38.176C9.28491 38.176 9.24991 38.176 9.21391 38.175C8.91191 38.165 8.60491 38.16 8.30791 38.156C7.30891 38.142 6.27691 38.127 5.32091 37.915C3.96491 37.614 2.74091 36.88 1.78291 35.792C0.851908 34.734 0.239908 33.391 0.0599084 32.01C-0.123092 30.605 0.114909 29.192 0.749909 27.924C1.38591 26.653 2.37691 25.615 3.61591 24.925C4.11691 24.645 4.31291 24.32 4.31591 23.768C4.32791 21.088 4.76391 18.471 5.61391 15.987C6.44491 13.56 7.65491 11.302 9.21091 9.277C10.7659 7.251 12.6359 5.499 14.7679 4.068C16.9489 2.605 19.3659 1.505 21.9539 0.797C23.8889 0.268 25.8949 0 27.9179 0C32.3589 0 36.7299 1.269 40.5589 3.668C44.4499 6.107 47.5039 9.55 49.3879 13.625C50.8919 16.878 51.6469 20.305 51.6319 23.812C51.6299 24.322 51.8079 24.625 52.2649 24.891C54.6799 26.299 55.9079 28.374 55.9159 31.06C55.9239 33.741 54.7219 35.811 52.3449 37.212C51.8179 37.522 51.6189 37.88 51.6339 38.489C51.6769 40.293 51.6699 41.794 51.1659 43.292C50.5219 45.205 49.3249 46.84 47.7049 48.019C46.0799 49.201 44.1559 49.833 42.1399 49.845C41.1559 49.851 40.1029 49.854 38.8259 49.854C37.9569 49.854 37.0889 49.853 36.2199 49.851C35.3509 49.85 34.4829 49.849 33.6139 49.849H32.8799L32.8049 50.009C32.7149 50.198 32.6369 50.379 32.5619 50.556C32.4099 50.912 32.2659 51.248 32.0709 51.526C31.7309 52.012 31.1959 52.282 30.5639 52.285L29.9369 52.288C28.9439 52.294 27.9179 52.3 26.9079 52.3ZM24.0289 50.375H30.6659V47.447H24.0289V50.375ZM7.39991 25.874C5.22891 25.874 3.67491 26.71 2.64891 28.431C1.56091 30.256 1.60791 32.164 2.78491 33.947C3.81991 35.514 5.30691 36.276 7.33391 36.276C7.64091 36.276 7.96491 36.258 8.29791 36.222L8.54691 36.195V25.943L8.29491 25.919C7.98591 25.889 7.68491 25.874 7.39991 25.874ZM48.7279 25.839C48.3179 25.839 47.9239 25.892 47.5579 25.996L47.3549 26.053V27.453C47.3549 30.179 47.3549 32.909 47.3569 35.64C47.3569 35.718 47.3649 35.79 47.3749 35.866C47.3789 35.899 47.3829 35.936 47.3869 35.976L47.4099 36.204L47.6379 36.226C47.9559 36.257 48.2669 36.273 48.5619 36.273C50.8049 36.273 52.4399 35.341 53.4189 33.501C54.4419 31.583 54.2639 29.631 52.9059 27.858C51.9669 26.631 50.3259 25.839 48.7279 25.839ZM16.2659 40.006C16.0579 40.006 15.8799 39.938 15.7059 39.792C15.3859 39.523 15.3089 39.187 15.4289 38.593C15.7879 36.809 16.1419 34.941 16.5089 32.88C16.5669 32.555 16.5109 32.17 16.3669 31.898C14.3429 28.085 14.2129 23.711 16.0109 19.897C17.8069 16.086 21.2599 13.405 25.4839 12.543C26.3059 12.376 27.1489 12.291 27.9889 12.291C31.1159 12.291 34.1819 13.449 36.6229 15.552C39.0959 17.683 40.6729 20.583 41.0629 23.717C41.1159 24.139 41.1479 24.573 41.1799 24.993C41.1939 25.186 41.2089 25.386 41.2259 25.583C41.2029 29.192 39.7729 32.548 37.1969 35.036C35.9699 36.22 34.5479 37.15 32.9719 37.799C31.3649 38.46 29.6779 38.795 27.9579 38.795C26.2129 38.795 24.4929 38.448 22.8449 37.762C22.6949 37.7 22.5139 37.667 22.3209 37.667C22.1129 37.667 21.9049 37.705 21.7349 37.776C20.1149 38.441 18.5199 39.141 16.9779 39.818C16.6859 39.946 16.4589 40.006 16.2659 40.006ZM27.9849 14.21C24.5019 14.21 21.2639 15.775 19.1019 18.504C16.1699 22.203 15.8149 27.196 18.1969 31.224C18.5269 31.782 18.6079 32.293 18.4669 32.933C18.2649 33.853 18.0929 34.766 17.9109 35.733C17.8349 36.133 17.7579 36.546 17.6769 36.962L17.5769 37.48L18.0609 37.272C18.4279 37.113 18.7919 36.959 19.1439 36.809C19.9979 36.446 20.8039 36.104 21.6109 35.733C21.8579 35.62 22.0889 35.565 22.3159 35.565C22.5549 35.565 22.8039 35.626 23.0779 35.751C24.7899 36.53 26.4889 36.926 28.1299 36.926C30.3799 36.926 32.5459 36.186 34.5679 34.726C38.1319 32.153 39.6899 28.594 39.1989 24.148C38.7099 19.719 35.4619 15.903 31.1169 14.652C30.0969 14.359 29.0439 14.21 27.9849 14.21ZM24.8519 28.97C23.8739 28.97 22.9179 28.967 22.0109 28.962C21.6379 28.959 21.3239 28.846 21.1269 28.642C20.9639 28.474 20.8809 28.246 20.8879 27.983C20.9019 27.408 21.3239 27.06 22.0159 27.051C22.3569 27.046 22.7249 27.044 23.1719 27.044C23.4639 27.044 23.7569 27.045 24.0489 27.046C24.3419 27.047 24.6359 27.048 24.9289 27.048H24.9459C25.2289 27.048 25.5109 27.047 25.7939 27.046C26.0829 27.045 26.3729 27.044 26.6619 27.044C27.0859 27.044 27.4349 27.046 27.7619 27.05C28.4769 27.058 28.9209 27.425 28.9199 28.007C28.9199 28.593 28.4749 28.959 27.7609 28.963C26.7329 28.968 25.7819 28.97 24.8519 28.97ZM21.9349 24.041C21.5979 24.041 21.1699 23.958 21.0399 23.561C20.9459 23.272 20.9609 22.861 21.0769 22.562C21.1909 22.272 21.4709 22.148 22.0129 22.148H22.0249C22.9319 22.151 23.9259 22.152 25.1539 22.152C25.7889 22.152 26.4239 22.152 27.0589 22.151C27.6799 22.151 28.3009 22.151 28.9219 22.151C29.3929 22.151 29.8639 22.15 30.3349 22.15C30.8169 22.15 31.2979 22.149 31.7799 22.149C32.5899 22.149 33.2519 22.15 33.8639 22.152C34.2879 22.153 34.6229 22.266 34.8299 22.477C34.9859 22.636 35.0639 22.847 35.0599 23.103C35.0469 23.947 34.1979 24.039 33.8329 24.04C33.0399 24.041 32.2469 24.041 31.4529 24.041C30.8009 24.041 30.1489 24.041 29.4979 24.041C29.4979 24.041 25.2489 24.04 24.6199 24.04C23.7259 24.04 22.8309 24.04 21.9369 24.041H21.9349Z" fill="#EC4D76"/>
</svg>
