<svg width="17" height="20" viewBox="0 0 17 20" fill="none" xmlns="http://www.w3.org/2000/svg">
<path fill-rule="evenodd" clip-rule="evenodd" d="M12.144 18.168C11.303 19.325 9.944 20.008 8.5 20.001C7.056 20.008 5.697 19.325 4.856 18.168C1.634 13.787 0 10.494 0 8.379C0 3.751 3.806 0 8.501 0C13.195 0.001 16.1 3.751 17 8.379C17 10.494 15.366 13.787 12.144 18.168ZM8.5 1.818C4.825 1.822 1.848 4.758 1.843 8.38C1.843 10.055 3.444 13.153 6.348 17.102C7.211 18.273 8.874 18.533 10.062 17.683C10.288 17.521 10.487 17.325 10.651 17.102C13.556 13.153 15.156 10.055 15.156 8.38C15.152 4.758 12.174 1.822 8.5 1.818ZM8.5 11.668C6.632 11.668 5.118 10.176 5.118 8.334C5.118 6.494 6.632 5.001 8.5 5.001C10.367 5.001 11.881 6.494 11.881 8.334C11.881 10.176 10.367 11.668 8.5 11.668ZM8.5 6.667C7.566 6.667 6.809 7.414 6.809 8.334C6.809 9.255 7.566 9.101 8.5 9.101C9.434 9.101 10.191 9.255 10.191 8.334C10.191 7.414 9.434 6.667 8.5 6.667Z" fill="#8496A1"/>
</svg>
