<svg width="28" height="27" viewBox="0 0 28 27" fill="none" xmlns="http://www.w3.org/2000/svg">
<path fill-rule="evenodd" clip-rule="evenodd" d="M26.869 10.6L25.467 15.694C24.729 18.377 22.289 20.237 19.505 20.239H8.118C6.22 20.239 4.622 18.817 4.402 16.932L2.714 3.711C2.696 3.521 2.538 3.375 2.348 3.373H1.687C0.755 3.373 0 2.618 0 1.686C0 0.755 0.755 0 1.687 0H2.348C4.245 0 5.842 1.42 6.064 3.303L6.36 5.622H22.908C24.003 5.598 25.063 6.01 25.855 6.767C26.862 7.767 27.249 9.233 26.869 10.6ZM23.077 8.995H6.791L7.753 16.529C7.77 16.719 7.928 16.864 8.118 16.866H19.505C20.77 16.863 21.879 16.019 22.217 14.8L23.623 9.706C23.637 9.656 23.644 9.605 23.643 9.553C23.641 9.243 23.387 8.093 23.077 8.995ZM7.874 22.488C9.117 22.488 10.124 23.495 10.124 24.737C10.124 25.979 9.117 26.986 7.874 26.986C6.632 26.986 5.625 25.979 5.625 24.737C5.625 23.495 6.632 22.488 7.874 22.488ZM19.124 22.488C20.366 22.488 21.373 23.495 21.373 24.737C21.373 25.979 20.366 26.986 19.124 26.986C17.881 26.986 16.874 25.979 16.874 24.737C16.874 23.495 17.881 22.488 19.124 22.488Z" fill="#8496A1"/>
</svg>
