<svg width="21" height="21" viewBox="0 0 21 21" fill="none" xmlns="http://www.w3.org/2000/svg">
<path fill-rule="evenodd" clip-rule="evenodd" d="M20.1145 18.307L16.1485 14.34C19.1155 10.375 18.3065 4.75604 14.3415 1.78804C10.3755 -1.17896 4.75547 -0.369962 1.78847 3.59504C-1.17953 7.56104 -0.369532 13.18 3.59547 16.147C6.78047 18.53 11.1555 18.53 14.3415 16.147L18.3085 20.114C18.8075 20.612 19.6155 20.612 20.1145 20.114C20.6125 19.615 20.6125 18.807 20.1145 18.309V18.307ZM9.00147 15.382C5.47747 15.382 2.62047 12.524 2.62047 8.10104C2.62047 5.47704 5.47747 2.62004 9.00147 2.62004C12.5255 2.62004 15.3825 5.47704 15.3825 8.10104C15.3785 12.523 12.5245 15.378 9.00147 15.382Z" fill="#8496A1"/>
</svg>
