<svg width="14" height="16" viewBox="0 0 14 16" fill="none" xmlns="http://www.w3.org/2000/svg">
<path fill-rule="evenodd" clip-rule="evenodd" d="M11.449 4.71536C10.458 3.75636 9.604 2.92836 9.604 0.697361C9.604 0.499361 9.518 0.310361 9.369 0.178361C9.219 0.0463606 9.018 -0.0156394 8.818 0.00336055C7.121 0.179361 3.913 1.42636 3.913 4.88036C3.913 5.01836 3.999 7.44936 3.566 7.88836C3.503 7.95136 3.411 8.01736 3.202 8.01736C3.072 8.01736 2.987 7.98036 2.901 7.88636C2.482 7.43436 2.407 6.10236 2.487 5.30136C2.504 5.12236 2.451 4.95036 2.348 4.81536C2.304 4.75736 2.25 4.70436 2.186 4.66236C1.936 4.49036 1.605 4.49536 1.361 4.66736C1.257 4.74136 1.172 4.84336 1.119 4.96636L0.992 5.26636C0.549 6.30036 0 7.58736 0 8.71436C0.002 12.8614 2.529 15.3374 6.758 15.3374C11.116 15.3374 13.517 13.1084 13.517 9.06236C13.517 6.71536 12.418 5.65236 11.449 4.71536Z" fill="#EC4D76"/>
</svg>
