<svg width="53" height="46" viewBox="0 0 53 46" fill="none" xmlns="http://www.w3.org/2000/svg">
<path fill-rule="evenodd" clip-rule="evenodd" d="M50.6758 33.721C50.4868 34.007 50.2908 34.307 50.0878 34.618C48.2558 37.417 45.9758 40.901 44.0448 43.154C42.9188 44.466 41.5508 45.322 39.9788 45.696L39.9508 45.703L39.9208 45.704C36.1678 45.839 32.1868 45.899 27.0108 45.899C24.6168 45.899 22.1818 45.886 19.8268 45.874C17.4728 45.862 15.0388 45.848 12.6468 45.848C10.6488 45.848 8.87082 45.858 7.20982 45.876H7.19682L7.18282 45.875C5.53282 45.743 3.93982 45.045 2.69682 43.909C1.45782 42.777 0.613818 41.254 0.320818 39.622L0.315818 39.594V39.565C0.356818 36.851 0.258818 33.961 0.163818 31.165C0.022818 26.989 -0.124182 22.67 0.171818 18.662C0.477818 14.501 3.52082 11.478 7.57182 11.311H7.58382L38.1638 11.273H38.1728C40.6678 11.422 42.5688 12.295 43.9828 13.943L43.9988 13.96L44.0108 13.98C45.0278 15.629 46.2788 17.289 47.4888 18.894C48.8718 20.729 50.3028 22.626 51.4068 24.536C53.4738 28.109 52.6598 30.699 50.6758 33.721ZM49.3568 25.475C47.3758 22.233 44.4528 18.275 42.8868 16.205C41.7608 14.716 40.6868 13.757 38.8208 13.578H7.11182C4.74182 13.876 2.83682 15.747 2.46782 18.138L2.46282 39.02C2.77882 41.518 4.87082 43.477 7.44582 43.684H38.5928C39.9518 43.544 41.1738 42.994 42.0368 42.136C42.2448 41.929 42.4898 41.595 42.7058 41.3C42.7868 41.19 42.8638 41.085 42.9358 40.991C44.3028 39.198 45.6028 37.244 46.8608 35.356C47.8208 33.914 48.8138 32.424 49.8288 31.015C50.7138 29.167 50.5678 27.458 49.3568 25.475ZM31.2338 40.392C31.1568 40.395 31.0798 40.396 31.0038 40.396C29.2998 40.396 27.8378 39.774 26.7758 38.597C25.8318 37.551 25.2768 36.142 25.2118 34.629C25.1468 33.123 25.5788 31.686 26.4278 30.586C27.3878 29.341 28.8128 28.603 30.5488 28.453C30.7638 28.434 30.9788 28.425 31.1868 28.425C32.9198 28.425 34.3938 29.066 35.4478 30.278C36.3828 31.352 36.9118 32.793 36.9358 34.334C36.9818 37.162 35.2168 40.263 31.2338 40.392ZM31.1198 30.631C31.0578 30.631 30.9948 30.633 30.9298 30.635C28.4598 30.734 27.3718 32.7 27.4068 34.485C27.4418 36.251 28.6058 38.151 31.0798 38.151H31.0888C33.6038 38.147 34.7468 36.212 34.7458 34.417C34.7438 32.593 33.6088 30.631 31.1198 30.631ZM29.7238 20.272L16.7368 39.832L16.7268 39.844C16.4808 40.142 16.1568 40.306 15.8138 40.306C15.2148 40.306 14.7418 39.828 14.6888 39.169L14.6808 39.066L27.8258 19.253C27.9968 19.011 28.3288 18.831 28.6328 18.815C28.6508 18.814 28.6688 18.814 28.6878 18.814C29.0478 18.814 29.4028 19.003 29.6128 19.307C29.8078 19.588 29.8518 19.928 29.7358 20.239L29.7238 20.272ZM14.3638 28.936C14.2858 28.939 14.2088 28.94 14.1328 28.94C12.4288 28.94 10.9668 28.318 9.90482 27.141C8.96182 26.096 8.40582 24.686 8.34082 23.173C8.27582 21.666 8.70782 20.231 9.55682 19.13C10.5178 17.885 11.9428 17.147 13.6778 16.997C13.8928 16.978 14.1078 16.969 14.3158 16.969C16.0488 16.969 17.5228 17.61 18.5768 18.821C19.5118 19.896 20.0408 21.337 20.0658 22.878C20.1108 25.706 18.3458 28.807 14.3638 28.936ZM14.2498 19.175C14.1868 19.175 14.1238 19.177 14.0598 19.179C11.5888 19.278 10.5008 21.244 10.5368 23.029C10.5718 24.795 11.7358 26.695 14.2088 26.696H14.2178C16.7328 26.691 17.8768 24.756 17.8748 22.96C17.8728 21.137 16.7378 19.175 14.2498 19.175ZM48.1598 15.705C47.8498 15.705 47.5488 15.595 47.3358 15.402L47.3018 15.372L47.2788 15.333C46.8128 14.551 46.4348 13.666 46.0688 12.809C45.1268 10.605 44.2368 8.523 41.9348 7.772L10.6728 2.226C10.5378 2.215 10.4018 2.211 10.2678 2.211C7.78682 2.211 5.61382 3.887 4.98382 6.286C4.91982 6.531 4.84782 7.01 4.77282 7.517C4.58882 8.75 4.45182 9.581 4.22682 9.885C4.03082 10.151 3.72382 10.304 3.38482 10.304C3.06482 10.304 2.75382 10.172 2.53082 9.943C2.32182 9.728 2.20982 9.443 2.21682 9.14C2.23682 8.336 2.74182 6.012 3.01282 5.171C3.97982 2.175 7.01782 0 10.2368 0C10.4808 0 10.7268 0.012 10.9668 0.038L10.9798 0.039L10.9918 0.041C15.5608 0.912 20.2298 1.696 24.7448 2.455C29.7858 3.303 34.0998 4.179 40.0988 5.179C40.3188 5.222 40.5318 5.261 40.7418 5.299C41.7268 5.479 42.6578 5.649 43.6538 6.15C46.1638 7.413 47.1868 9.803 48.1758 12.114C48.4768 12.816 48.7878 13.543 49.1358 14.226C49.3098 14.56 49.1398 15.171 48.9358 15.391C48.7488 15.593 48.4728 15.705 48.1598 15.705Z" fill="#EC4D76"/>
</svg>
