<svg width="54" height="54" viewBox="0 0 54 54" fill="none" xmlns="http://www.w3.org/2000/svg">
<path fill-rule="evenodd" clip-rule="evenodd" d="M11.676 50.74V53.577L11.516 53.737H0.161L0 53.577V31.204L0.161 31.043H11.516L11.676 31.204V33.72C12.148 33.787 12.26 33.271 12.529 33.019C17.027 28.809 23.754 29.085 27.82 33.697C31.26 34.02 36.094 32.53 37.941 36.429C38.121 36.809 38.188 37.258 38.34 37.639C38.383 37.749 38.282 37.823 38.509 37.786C40.774 35.608 42.904 32.999 45.257 30.933C45.977 30.301 46.708 29.72 47.666 29.487C52.356 28.352 55.608 33.68 52.493 37.415C48.969 41.639 43.941 45.421 40.279 49.617C39.802 50.002 38.455 50.74 37.868 50.74H11.676ZM11.676 48.492H37.439C37.78 48.492 38.608 48.048 38.887 47.797L50.724 35.968C52.727 33.625 50.182 30.574 47.526 32.024L36.154 43.354H21.532V41.106H34.011C34.646 41.106 35.566 40.284 35.837 39.718C36.748 37.81 35.447 36.146 33.474 35.969C31.288 35.773 28.851 36.126 26.638 35.95C23.483 31.201 16.22 31.058 13.176 35.967H11.676V48.492ZM9.32 33.398H2.357V51.382H9.32V33.398ZM33.293 0.03L34.332 0C45.944 0.4 53.415 12.96 47.688 23.3C42.085 33.418 27.882 34.273 21.123 24.868C13.788 14.661 20.942 0.559 33.293 0.03ZM32.437 2.386C25.496 3.001 20.085 9.526 20.462 16.43C21.06 27.395 34.136 33.182 42.578 26.008C52.637 17.461 45.725 1.209 32.437 2.386ZM31.601 17.983V20.766H38.886V23.122H31.601V26.761H29.352V23.122H26.031V20.766H29.352V18.144L29.191 17.983H26.031V15.735H29.352V5.566H37.011C40.377 5.566 43.179 8.998 42.942 12.243C42.767 14.632 40.316 17.983 37.761 17.983H31.601ZM31.601 15.735H37.332C37.602 15.735 38.656 15.258 38.92 15.073C41.395 13.349 41.149 9.528 38.39 8.255C38.243 8.188 37.531 7.92 37.439 7.92H31.601V15.735Z" fill="#EC4D76"/>
</svg>
