<svg width="55" height="45" viewBox="0 0 55 45" fill="none" xmlns="http://www.w3.org/2000/svg">
<path fill-rule="evenodd" clip-rule="evenodd" d="M27.1158 44.264C25.6738 44.264 24.2428 43.559 22.9768 42.226C20.6498 39.775 18.4278 37.068 16.2778 34.451C14.5328 32.326 12.7288 30.129 10.8808 28.084C10.5098 27.673 10.1398 27.272 9.78076 26.891L9.76976 26.878L4.14477 20.39C2.94877 19.078 0.872765 16.588 0.558765 15.963C-0.315235 14.22 -0.158235 12.252 0.989765 10.562C2.09277 8.938 3.47077 7.351 4.80377 5.816C6.01777 4.419 7.27376 2.974 8.30376 1.517L8.33276 1.477L8.36976 1.445C9.39076 0.55 10.4618 0.064 11.5548 0.000999987L11.5668 0L43.0208 0.000999987L43.0408 0.00300002C44.7798 0.175 45.8158 1.127 46.6768 2.131C48.5738 4.343 50.9338 7.367 52.8348 10.021C54.0408 11.706 54.9488 13.628 53.4348 16.264L53.4158 16.297L47.8028 22.954C50.6618 24.181 52.8578 26.569 53.8758 29.586C54.9628 32.804 54.5498 36.274 52.7428 39.106C50.6928 42.318 47.1848 44.235 43.3578 44.235C41.4258 44.235 39.5318 43.743 37.8798 42.811C36.2648 41.899 34.9108 40.576 33.9398 38.966L30.6178 42.865L30.5878 42.889C29.4698 43.802 28.3018 44.264 27.1158 44.264ZM43.4008 24.142C43.1818 24.142 42.9578 24.151 42.7378 24.166C40.0048 24.361 37.5478 25.754 35.9978 27.989C34.4288 30.251 33.9798 33.082 34.7688 35.754C35.9058 39.61 39.2878 42.102 43.3858 42.102C46.7128 42.102 49.6518 40.373 51.2498 37.478C52.7918 34.68 52.7378 31.359 51.1048 28.592C49.4598 25.806 46.5798 24.142 43.4008 24.142ZM27.0238 42.009C27.0538 42.047 27.0798 42.076 27.0998 42.097C27.2078 41.941 27.3378 41.572 27.3978 41.399C27.4298 41.308 27.4598 41.222 27.4888 41.146C29.3318 36.347 31.0018 31.366 32.6168 26.549C33.9618 22.537 35.3528 18.388 36.8378 14.361L36.8398 14.305H17.3658C17.4598 14.743 17.6088 15.175 17.7628 15.626C17.8118 15.769 17.8608 15.912 17.9088 16.054C19.3518 20.425 20.9458 24.832 22.4868 29.095C24.0128 33.314 25.5898 37.677 27.0238 42.009ZM10.9418 24.93C11.3428 25.377 11.7608 25.85 12.1858 26.335C13.9258 28.326 15.6498 30.393 17.3158 32.392C19.5448 35.065 21.8458 37.825 24.2178 40.439L15.8308 16.529C15.7838 16.382 15.7338 16.236 15.6838 16.09C15.4898 15.519 15.2898 14.932 15.2078 14.305H2.23077L2.32877 14.717C3.01877 15.848 3.94677 16.881 4.84577 17.882C5.21277 18.29 5.59176 18.712 5.95276 19.138L10.9418 24.93ZM29.9978 40.418C30.3848 39.971 30.7628 39.501 31.1328 39.041C31.6888 38.349 32.2628 37.635 32.8708 36.994C32.8428 36.742 32.6678 36.139 32.5578 35.762C32.4168 35.278 32.2948 34.859 32.2698 34.604C32.2528 34.446 32.2438 34.285 32.2398 34.122L29.9978 40.418ZM35.2328 25.547C36.0378 24.681 36.8748 24.006 37.7868 23.482C39.5038 22.494 41.4508 21.993 43.5738 21.993C43.8488 21.993 44.1298 22.002 44.4088 22.019C44.5878 22.03 44.7758 22.074 44.9758 22.12C45.1788 22.168 45.3878 22.217 45.5428 22.217C45.5838 22.217 45.6108 22.214 45.6288 22.21L51.5178 15.343C51.7418 14.971 51.9258 14.639 52.0008 14.305H39.0228L35.2328 25.547ZM51.7698 12.186C51.6678 11.997 51.5288 11.813 51.3858 11.623C51.3198 11.536 51.2548 11.45 51.1928 11.363C50.1418 9.891 48.9698 8.452 47.8368 7.061C46.7518 5.73 45.6308 4.353 44.6078 2.939C44.3308 2.686 43.4438 2.153 43.2038 2.124H35.6058L38.7628 12.186H51.7698ZM36.5008 12.186L33.4338 2.134L21.0678 2.117L17.6688 12.186H36.5008ZM15.4968 12.186L18.6528 2.124H11.2658C11.0198 1.247 10.1298 2.701 9.82376 2.99C8.82776 4.473 7.53677 5.932 6.28677 7.343C4.97577 8.823 3.61977 10.354 2.64677 11.875C2.60177 11.945 2.52877 12.059 2.46477 12.186H15.4968ZM41.7738 39.046C41.2488 39.046 40.7288 38.932 40.2718 38.715C39.4988 38.348 36.4498 35.359 36.0348 34.562C35.5478 33.626 35.5668 32.558 36.0848 31.703C36.5908 30.869 37.4758 30.371 38.4508 30.371C38.8098 30.371 39.1718 30.438 39.5288 30.571C40.1768 30.812 40.6408 31.312 41.0888 31.796C41.3298 32.055 41.5598 32.303 41.8018 32.494C42.2528 32.092 43.3488 30.949 44.1088 30.154C45.0078 29.215 45.7848 28.404 46.0938 28.148C46.5178 27.797 47.0778 27.381 47.6528 27.284C47.8438 27.251 48.0358 27.234 48.2218 27.234C49.3378 27.234 50.3178 27.836 50.7788 28.803C51.2638 29.818 51.0928 30.992 50.3218 31.943C49.1478 33.393 47.5658 34.827 46.0358 36.213C45.1338 37.031 44.2818 37.803 43.5258 38.563L43.4828 38.606L43.4288 38.636C42.9348 38.904 42.3628 39.046 41.7738 39.046ZM38.4368 32.472C38.3638 32.472 38.2918 32.488 38.2138 32.52C37.9948 32.61 37.8668 32.74 37.8228 32.917C37.7558 33.185 37.8778 33.56 38.1348 33.872C38.6178 34.458 40.8538 36.664 41.2748 36.843C41.4378 36.904 41.6058 36.935 41.7728 36.935C42.0898 36.935 42.3978 36.822 42.6638 36.605L48.8378 30.409C48.9618 30.132 48.9608 29.859 48.8348 29.654C48.7188 29.466 48.5118 29.362 48.2518 29.362C48.1778 29.362 48.0998 29.371 48.0208 29.388C47.8898 29.414 47.6938 29.565 47.5758 29.656C46.8238 30.235 46.0688 31.082 45.3388 31.902C44.5828 32.751 43.8018 33.629 42.9868 34.255C42.5868 34.563 42.1808 34.719 41.7778 34.719C40.9158 34.719 40.2718 34.025 39.7028 33.414C39.2728 32.951 38.8278 32.472 38.4368 32.472Z" fill="#EC4D76"/>
</svg>
