<svg width="23" height="23" viewBox="0 0 23 23" fill="none" xmlns="http://www.w3.org/2000/svg">
<path fill-rule="evenodd" clip-rule="evenodd" d="M11.494 0C17.842 0 22.988 5.147 22.988 11.494C22.988 17.842 17.842 22.988 11.494 22.988C5.146 22.988 0 17.842 0 11.494C0 5.147 5.146 0 11.494 0Z" fill="#059757"/>
<path fill-rule="evenodd" clip-rule="evenodd" d="M6.73888 16.606C3.56988 13.139 4.93488 7.768 9.19288 6L11.4149 13.557L13.7349 6.031C18.0379 7.662 19.3889 13.192 16.2219 16.606H13.3379L14.7609 15.676C16.7109 14.018 17.3569 11.303 16.0439 9.028C15.6469 8.341 14.5489 6.91 13.9989 8.285L11.5469 16.54C11.3709 16.56 11.4419 16.537 11.4129 16.442C10.6399 13.899 9.95888 11.242 9.11088 8.732C8.94488 8.241 8.83788 7.603 8.14788 7.737C7.71788 7.82 7.10588 8.694 6.89288 9.07C5.60788 11.346 6.27588 14.022 8.19988 15.676L9.62388 16.606H6.73888Z" fill="white"/>
</svg>
