<svg width="54" height="54" viewBox="0 0 54 54" fill="none" xmlns="http://www.w3.org/2000/svg">
<path fill-rule="evenodd" clip-rule="evenodd" d="M26.1 0C41.912 0 53.1 12.088 53.1 27C53.1 41.912 41.912 54 26.1 54C12.088 54 0 41.912 0 27C0 12.088 12.088 0 26.1 0Z" fill="#EAF2F8"/>
<path fill-rule="evenodd" clip-rule="evenodd" d="M30.6 36.587C29.658 37.898 28.136 38.672 26.519 38.664C24.901 38.672 23.38 37.898 22.438 36.587C18.83 31.623 17 27.891 17 25.494C17.001 20.25 21.263 16 26.52 16C31.776 16.001 36.037 20.251 36.038 25.494C36.038 27.891 34.208 31.623 30.6 36.587ZM26.519 18.061C22.404 18.065 19.07 21.392 19.065 25.496C19.065 27.394 20.857 30.904 24.11 35.379C25.076 36.706 26.937 37.001 28.268 36.037C28.522 35.854 28.744 35.632 28.928 35.379C32.181 30.904 33.973 27.394 33.973 25.496C33.968 21.392 30.634 18.065 26.519 18.061ZM26.519 29.221C24.428 29.221 22.732 27.53 22.732 25.444C22.732 23.358 24.428 21.667 26.519 21.667C28.61 21.667 30.306 23.358 30.306 25.444C30.306 27.53 28.61 29.221 26.519 29.221ZM26.519 23.555C25.473 23.555 24.626 24.401 24.626 25.444C24.626 26.487 25.473 27.332 26.519 27.332C27.565 27.332 28.412 26.487 28.412 25.444C28.412 24.401 27.565 23.555 26.519 23.555Z" fill="#5F9EC5"/>
</svg>
