<svg width="62" height="61" viewBox="0 0 62 61" fill="none" xmlns="http://www.w3.org/2000/svg">
<path fill-rule="evenodd" clip-rule="evenodd" d="M30.5409 61C26.3619 60.999 22.2899 60.157 18.4369 58.496C14.6389 56.859 11.2499 54.507 8.35889 51.505V56.85C8.35889 57.283 7.90789 57.518 7.48489 57.518C7.11989 57.518 6.87489 57.345 6.87489 57.089V49.168C6.87489 49.032 7.16889 48.814 7.19889 48.8L7.22689 48.787L15.1389 48.728L15.4939 48.914L15.5029 48.921C15.6849 49.055 15.7319 49.306 15.6329 49.611C15.5509 49.86 15.3339 50.211 15.1079 50.211H9.25789C13.7509 55.098 20.0709 58.395 26.6499 59.271C27.9109 59.44 29.1959 59.525 30.4669 59.525C40.3609 59.524 49.7649 54.35 55.0079 46.02C59.0239 39.641 60.4009 31.899 58.8849 24.224L58.8779 24.185L59.0309 23.75L59.0669 23.724C59.2349 23.601 59.4149 23.536 59.5889 23.536C59.9359 23.536 60.2229 23.787 60.3399 24.192C60.6809 25.379 60.9089 27.695 60.9729 28.876C61.1399 31.982 60.8189 35.099 60.0179 38.14C59.2369 41.107 58.0149 43.943 56.3879 46.569C54.7619 49.193 52.7699 51.545 50.4659 53.558C48.1069 55.62 45.4709 57.283 42.6309 58.502C38.7709 60.159 34.7039 61 30.5429 61C30.5419 61 30.5409 61 30.5409 61ZM30.4759 51.805C26.8769 51.805 23.3359 50.925 20.2349 49.259C16.8799 47.458 14.1489 44.844 12.1189 41.491C10.1589 38.254 9.09489 34.55 9.04389 30.781C8.99489 27.21 9.84089 23.619 11.4909 20.396C13.1039 17.246 15.4449 14.535 18.2589 12.557C21.2849 10.43 24.7089 9.203 28.4359 8.911C29.0429 8.863 29.6559 8.84 30.2589 8.84C33.9339 8.84 37.4109 9.697 40.5939 11.389C43.6039 12.988 46.2259 15.309 48.1779 18.1C52.2119 23.87 53.1169 31.056 50.6609 37.816C49.0809 42.165 46.2539 45.772 42.4859 48.251C38.9519 50.576 34.7989 51.805 30.4759 51.805ZM30.3549 10.318C29.7319 10.318 29.0939 10.344 28.4589 10.396C19.8119 11.105 12.2079 18.245 10.7729 27.004C9.79989 32.941 11.3619 38.684 15.1699 43.174C19.0099 47.703 24.7809 50.407 30.6079 50.407C34.7169 50.407 38.7289 49.08 42.2089 46.569C50.8809 40.311 51.6829 30.983 49.5419 24.341C46.7969 15.822 39.2659 10.318 30.3549 10.318ZM32.1789 37.283C31.9659 37.283 31.7659 37.191 31.6299 37.031C31.4789 36.852 31.4209 36.604 31.4669 36.332L31.4699 36.318L36.1599 23.93L36.1639 23.922C36.2459 23.768 36.4199 23.498 36.6679 23.426C36.7579 23.399 36.8469 23.386 36.9329 23.386C37.3339 23.386 37.6079 23.665 37.6139 24.079L37.6149 24.106L32.8859 36.836L32.8809 36.846C32.7249 37.12 32.4629 37.283 32.1789 37.283ZM1.30789 36.87C0.962892 36.87 0.675892 36.619 0.557892 36.215C0.279892 35.255 0.0948923 33.25 0.0388923 32.135C-0.689108 17.711 8.87389 4.613 22.7759 0.992C25.3009 0.334 27.8969 0 30.4909 0C34.6869 0 38.7749 0.85 42.6389 2.526C46.4189 4.166 49.7879 6.511 52.6589 9.5V4.157C52.6589 3.74 53.0979 3.522 53.5329 3.522C53.8969 3.522 54.1429 3.68 54.1429 3.917V11.838C54.1429 11.95 53.8119 12.281 53.6999 12.281H45.7899C45.5539 12.281 45.3959 12.036 45.3959 11.671C45.3959 11.236 45.6139 10.795 46.0299 10.795H51.7609C46.3559 4.879 38.6109 1.491 30.4579 1.491C26.3839 1.491 22.4419 2.324 18.7399 3.967C6.34389 9.467 -0.534108 22.715 2.01189 36.184L2.01989 36.222L1.86689 36.656L1.83089 36.682C1.66189 36.805 1.48089 36.87 1.30789 36.87ZM40.3829 36.303C40.0329 36.303 39.7369 36.036 39.6459 35.638L39.6349 35.589L44.1839 26.205H38.7189C38.4989 26.205 38.3179 25.964 38.2879 25.632C38.2519 25.247 38.4389 24.817 38.9349 24.724L38.9539 24.721L38.9729 24.722C39.3019 24.749 39.6599 24.762 40.0669 24.762C40.6719 24.762 41.3089 24.733 41.9239 24.704C42.5419 24.676 43.1799 24.646 43.7909 24.646C44.3299 24.646 44.7939 24.669 45.2099 24.717C45.6129 24.763 45.8989 24.918 46.0359 25.165C46.1219 25.318 46.1859 25.583 46.0059 25.97L40.8749 36.13L40.8439 36.151C40.6949 36.251 40.5389 36.303 40.3829 36.303ZM29.3459 36.298C29.0279 36.298 28.5679 36.136 28.5679 35.845V32.807H23.2379L23.2189 32.801C23.0469 32.753 22.9089 32.584 22.8419 32.339C22.7719 32.082 22.7829 31.736 22.9659 31.541L28.7269 24.806L28.7429 24.795C28.9689 24.642 29.1789 24.565 29.3689 24.565C29.5469 24.565 29.9689 24.645 30.0539 25.384C30.1669 26.378 30.1159 27.493 30.0659 28.57C30.0239 29.499 29.9799 30.459 30.0419 31.333L31.1139 31.439L31.1509 31.501C31.3919 31.903 31.4459 32.227 31.3119 32.464C31.1719 32.711 30.8499 32.836 30.3539 32.836C30.2539 32.836 30.1479 32.831 30.0359 32.821C30.0209 33.064 30.0359 33.443 30.0509 33.841C30.0949 35.012 30.1049 35.861 29.8329 36.129C29.7209 36.239 29.5529 36.298 29.3459 36.298ZM28.5679 31.32V27.406L25.1879 31.32H28.5679ZM18.5449 35.92C17.2039 35.92 16.0609 35.878 15.5629 35.811C15.2929 35.776 15.1109 35.685 15.0049 35.536C14.8939 35.381 14.8699 35.173 14.9289 34.883L14.9359 34.851L14.9549 34.826C15.7019 33.829 16.5999 32.906 17.4679 32.015C18.0499 31.418 18.6509 30.801 19.1959 30.171L19.2789 30.076C19.5699 29.743 20.0089 29.24 20.1009 28.884C20.3029 28.112 20.1829 27.388 19.7649 26.845C19.3749 26.34 18.7749 26.061 18.0759 26.061C17.9079 26.061 17.7339 26.078 17.5589 26.11C17.3099 26.157 17.0719 26.334 16.8409 26.506C16.5739 26.705 16.3209 26.894 16.0409 26.894C15.8449 26.894 15.6629 26.798 15.4989 26.608L15.4879 26.595L15.4799 26.58C15.3519 26.328 15.3549 26.055 15.4869 25.791C15.7919 25.186 16.7339 24.72 17.2699 24.629C17.5139 24.588 17.7609 24.567 18.0039 24.567C19.1729 24.567 20.2419 25.051 20.9369 25.895C21.6099 26.711 21.8609 27.777 21.6449 28.895C21.4059 30.134 20.1839 31.35 19.0029 32.525C18.3679 33.157 17.7649 33.757 17.3559 34.321H21.9389C22.1779 34.321 22.4519 34.78 22.4749 35.111C22.4879 35.287 22.4499 35.707 21.8329 35.795C21.2979 35.871 20.0079 35.92 18.5449 35.92Z" fill="white"/>
</svg>
