<svg width="60" height="60" viewBox="0 0 60 60" fill="none" xmlns="http://www.w3.org/2000/svg">
<path fill-rule="evenodd" clip-rule="evenodd" d="M0 59.601V35.08H12.071V38.03L12.555 38.099C12.612 38.107 12.67 38.112 12.726 38.112C13.336 38.112 13.639 37.654 13.82 37.381C13.878 37.294 13.937 37.204 13.982 37.161C16.197 35.089 19.015 33.947 21.917 33.947C25.184 33.947 28.217 35.347 30.458 37.889L30.606 38.057L30.828 38.077C31.254 38.117 31.73 38.137 32.283 38.137C32.857 38.137 33.457 38.116 34.036 38.096C34.625 38.076 35.234 38.055 35.825 38.055C38.624 38.055 40.713 38.529 41.811 40.846C41.904 41.042 41.969 41.276 42.038 41.522C42.092 41.719 42.149 41.92 42.223 42.118C42.233 42.285 42.291 42.421 42.397 42.529C42.48 42.612 42.627 42.711 42.857 42.711C42.914 42.711 42.976 42.706 43.052 42.693L43.226 42.665L43.352 42.543C44.448 41.49 45.53 40.333 46.576 39.214C47.988 37.704 49.449 36.143 50.96 34.816C51.712 34.156 52.468 33.543 53.444 33.306C53.882 33.201 54.321 33.147 54.747 33.147C56.637 33.147 58.314 34.22 59.124 35.947C59.963 37.737 59.668 39.76 58.334 41.359C56.278 43.824 53.704 46.208 51.215 48.514C48.928 50.634 46.563 52.825 44.572 55.1C43.992 55.551 42.67 56.214 42.237 56.214H12.071V59.601H0ZM1.538 58.065H10.533V36.617H1.538V58.065ZM12.071 54.799H41.753C42.351 54.799 43.411 54.188 43.765 53.869L43.776 53.859L57.181 40.466L57.195 40.449C58.172 39.307 58.41 37.879 57.833 36.63C57.275 35.42 56.057 34.639 54.731 34.639C54.105 34.639 53.483 34.805 52.883 35.133L52.813 35.171L40.067 47.868H24.336V46.452H37.878C38.881 46.452 40.09 45.315 40.449 44.564C40.978 43.455 40.97 42.319 40.425 41.364C39.837 40.333 38.677 39.646 37.321 39.525C36.785 39.477 36.197 39.453 35.522 39.453C34.797 39.453 34.051 39.48 33.33 39.506C32.617 39.532 31.879 39.558 31.169 39.558C30.687 39.558 30.254 39.546 29.855 39.521C28.034 36.946 25.056 35.417 21.832 35.417C18.639 35.417 15.744 36.945 14.022 39.521H12.071V54.799ZM37.741 34.396C32.143 34.396 27.05 31.778 23.768 27.212C20.048 22.035 19.495 15.518 22.289 9.777C23.623 7.036 25.639 4.69 28.121 2.992C30.745 1.196 33.845 0.173 37.087 0.034L38.239 0C44.307 0.215 49.728 3.517 52.742 8.833C54.15 11.315 54.928 14.104 54.994 16.899C55.064 19.901 54.34 22.794 52.844 25.496C51.289 28.302 49.026 30.604 46.298 32.151C43.709 33.62 40.75 34.396 37.741 34.396ZM37.632 1.503C37.111 1.503 36.578 1.527 36.049 1.574C27.986 2.288 21.553 9.826 22.001 18.035C22.512 27.384 30.501 32.97 37.93 32.97C41.609 32.97 45.066 31.686 47.925 29.257C53.098 24.863 54.871 18.22 52.553 11.922C50.224 5.593 44.367 1.503 37.632 1.503ZM33.174 29.117V25.004H29.421V23.467H33.174V19.708L32.663 19.197H29.421V17.781H33.174V6.289H41.268C42.823 6.289 44.341 7.001 45.545 8.295C46.838 9.684 47.535 11.53 47.411 13.232C47.224 15.781 44.572 19.197 42.116 19.197H34.591V23.467H42.824V25.004H34.591V29.117H33.174ZM34.591 17.781H41.632C42.126 17.781 43.449 17.141 43.748 16.933C45.259 15.88 46.063 14.151 45.9 12.307C45.741 10.517 44.681 9.002 43.063 8.256C43.054 8.252 42.055 7.826 41.753 7.826H34.591V17.781Z" fill="white"/>
</svg>
