<svg width="58" height="58" viewBox="0 0 58 58" fill="none" xmlns="http://www.w3.org/2000/svg">
<path fill-rule="evenodd" clip-rule="evenodd" d="M45.191 28.5697C45.191 31.2517 45.178 33.9337 45.2 36.6157C45.205 37.2707 44.96 37.6617 44.367 37.9447C39.494 40.2657 34.62 42.5847 29.775 44.9637C28.936 45.3767 28.296 45.3687 27.465 44.9597C22.658 42.5977 17.825 40.2847 12.986 37.9867C12.314 37.6677 12.075 37.2437 12.077 36.5237C12.091 31.1187 12.078 25.7137 12.069 20.3087C12.069 19.8587 12.229 19.5177 12.64 19.3207C16.574 17.4357 20.509 15.5527 24.442 13.6677C25.65 13.0887 26.861 12.5167 28.057 11.9147C28.482 11.7017 28.853 11.7157 29.271 11.9167C34.369 14.3767 39.471 16.8297 44.575 19.2777C45.01 19.4867 45.213 19.7937 45.212 20.2797C45.204 23.0427 45.208 25.8057 45.208 28.5697C45.202 28.5697 45.196 28.5697 45.191 28.5697ZM43.489 21.5467C43.295 21.6177 43.181 21.6497 43.076 21.7007C38.679 23.8147 34.286 25.9367 29.883 28.0387C29.543 28.2017 29.482 28.4067 29.483 28.7387C29.491 33.3697 29.488 38.0017 29.49 42.6327C29.49 42.7897 29.503 42.9467 29.512 43.1407C29.62 43.1117 29.699 43.1027 29.767 43.0697C34.227 40.9237 38.684 38.7707 43.15 36.6377C43.491 36.4737 43.491 36.2457 43.491 35.9547C43.487 33.3547 43.489 30.7547 43.489 28.1547C43.489 25.9817 43.489 23.8097 43.489 21.5467ZM27.746 43.1997C27.762 43.0397 27.776 42.9627 27.776 42.8837C27.777 38.1327 27.782 33.3807 27.761 28.6287C27.76 28.4357 27.566 28.1517 27.387 28.0647C23.016 25.9387 18.635 23.8337 14.255 21.7277C14.124 21.6647 13.977 21.6367 13.839 21.5917C13.81 21.6767 13.798 21.6957 13.798 21.7157C13.794 26.5077 13.785 31.2997 13.807 36.0917C13.808 36.2957 14.047 36.5857 14.249 36.6877C15.643 37.3917 17.057 38.0557 18.464 38.7327C21.532 40.2087 24.6 41.6857 27.746 43.1997ZM14.941 20.1037C16.806 21.0007 18.595 21.8487 20.37 22.7237C20.696 22.8837 20.945 22.8827 21.27 22.7257C25.503 20.6777 29.743 18.6447 33.98 16.6067C34.128 16.5357 34.264 16.4417 34.467 16.3227C32.624 15.4337 30.868 14.5967 29.124 13.7357C28.781 13.5667 28.509 13.5687 28.161 13.7377C25.356 15.1057 22.54 16.4517 19.727 17.8047C18.16 18.5577 16.593 19.3107 14.941 20.1037ZM42.336 20.1137C40.49 19.2257 38.749 18.4027 37.024 17.5467C36.639 17.3557 36.339 17.3477 35.95 17.5387C33.179 18.8907 30.397 20.2187 27.618 21.5537C26.036 22.3147 24.453 23.0747 22.787 23.8747C24.716 24.8057 26.55 25.7037 28.403 26.5627C28.591 26.6507 28.915 26.5607 29.131 26.4577C31.675 25.2527 34.21 24.0307 36.747 22.8107C38.569 21.9337 40.389 21.0527 42.336 20.1137ZM9.63404 50.1307C18.057 57.6647 30.622 59.4997 40.715 54.6747C53.354 48.6327 59.769 34.9097 56.277 21.3307C55.97 20.1367 55.515 18.9787 55.101 17.8147C54.927 17.3277 54.537 17.1087 54.031 17.2837C53.523 17.4587 53.39 17.8667 53.513 18.3667C53.547 18.5037 53.604 18.6357 53.655 18.7677C55.656 23.9067 56.038 29.1607 54.873 34.5527C52.414 45.9297 42.228 54.7617 30.653 55.4847C23.377 55.9387 16.899 53.8797 11.27 49.2277C10.545 48.6287 9.87904 47.9587 9.18604 47.3217C9.50504 47.2187 9.74504 47.2317 9.98404 47.2567C11.519 47.4207 13.052 47.5917 14.587 47.7527C15.182 47.8147 15.597 47.5137 15.647 47.0087C15.695 46.5297 15.383 46.1547 14.806 46.0897C12.264 45.8027 9.72104 45.5247 7.17504 45.2667C6.47004 45.1957 6.14704 45.4947 6.07404 46.1707C5.79904 48.6937 5.52404 51.2157 5.25204 53.7387C5.18604 54.3427 5.45804 54.7577 5.95804 54.8347C6.47904 54.9157 6.86304 54.5707 6.93604 53.9297C7.15104 52.0547 7.35704 50.1797 7.57904 48.1957C8.31204 48.8867 8.95704 49.5257 9.63404 50.1307ZM49.5 9.31274C49.396 9.14174 49.322 8.93874 49.183 8.80474C40.404 0.349737 30.137 -2.18026 18.673 1.92974C4.99604 6.83374 -2.45796 20.9737 0.733044 35.1447C1.05204 36.5637 1.57504 37.9377 2.03904 39.3197C2.22004 39.8587 2.68904 40.0567 3.15404 39.8507C3.63704 39.6377 3.79204 39.2527 3.63804 38.7497C3.57904 38.5567 3.50104 38.3687 3.43104 38.1787C1.66604 33.4177 1.22304 28.5347 2.22804 23.5597C4.64604 11.5847 14.424 2.81874 26.586 1.91674C34.838 1.30474 41.958 4.03374 47.854 9.87474C47.954 9.97474 48.031 10.0997 48.152 10.2567C47.985 10.2567 47.903 10.2637 47.823 10.2547C46.128 10.0677 44.433 9.87574 42.737 9.69174C42.101 9.62174 41.675 9.92274 41.633 10.4527C41.592 10.9647 41.922 11.3067 42.535 11.3777C43.079 11.4417 43.624 11.4997 44.169 11.5597C46.147 11.7787 48.125 12.0047 50.104 12.2137C50.759 12.2827 51.125 11.9817 51.193 11.3597C51.473 8.81674 51.749 6.27374 52.022 3.72974C52.098 3.02974 51.822 2.60974 51.271 2.56474C50.732 2.52074 50.408 2.85074 50.333 3.51874C50.122 5.39474 49.91 7.27074 49.698 9.14674C49.632 9.20174 49.566 9.25674 49.5 9.31274ZM17.821 29.7617C19.39 30.5607 20.974 31.3297 22.573 32.0647C23.003 32.2617 23.422 32.0857 23.638 31.6297C23.857 31.1667 23.687 30.7937 23.277 30.5397C23.003 30.3717 22.697 30.2527 22.405 30.1127C21.183 29.5267 19.965 28.9307 18.736 28.3597C18.083 28.0557 17.465 28.3757 17.403 29.1777C17.489 29.3047 17.597 29.6487 17.821 29.7617Z" fill="#EC4D76"/>
</svg>
