<svg width="20" height="27" viewBox="0 0 20 27" fill="none" xmlns="http://www.w3.org/2000/svg">
<path fill-rule="evenodd" clip-rule="evenodd" d="M17.9019 26.02C16.8789 26.02 16.0499 25.251 16.0499 24.302V23.73C16.0499 23.543 16.0399 23.356 16.0199 23.17C15.6829 20.02 12.6559 17.72 9.2599 18.032C6.0419 18.413 3.6489 20.978 3.7049 23.985V24.302C3.7049 25.251 2.8749 26.02 1.8529 26.02C0.829903 26.02 0.00090275 25.251 0.00090275 24.302V24.054C-0.0690973 19.156 3.9399 15.033 9.2009 14.592C9.4189 14.578 9.6369 14.572 9.8549 14.571C15.3159 14.566 19.7479 18.666 19.7539 23.73V24.302C19.7539 25.251 18.9249 26.02 17.9019 26.02ZM9.8769 13.53C6.1469 13.526 3.1239 10.5 3.1199 6.765C3.1199 3.029 6.1449 0 9.8769 0C13.6089 0 16.6349 3.029 16.6349 6.765C16.6349 10.501 13.6089 13.53 9.8769 13.53ZM9.8769 3.383C8.0109 3.383 6.4989 4.897 6.4989 6.765C6.4989 8.633 8.0109 10.147 9.8769 10.147C11.7429 10.147 13.2559 8.633 13.2559 6.765C13.2559 4.897 11.7429 3.383 9.8769 3.383Z" fill="#8496A1"/>
</svg>
