<svg width="26" height="23" viewBox="0 0 26 23" fill="none" xmlns="http://www.w3.org/2000/svg">
<path fill-rule="evenodd" clip-rule="evenodd" d="M18.0955 0C15.9145 0.021 13.8725 1.08 12.5895 2.855C11.3075 1.08 9.26554 0.021 7.08354 0C3.02654 0.163 -0.136463 3.592 0.00453663 7.673C0.00453663 12.474 4.90654 17.615 9.02454 21.082C11.0885 22.827 14.1005 22.827 16.1645 21.082C20.2785 17.615 25.1845 12.474 25.1845 7.673C25.3255 3.589 22.1565 0.158 18.0955 0ZM14.1385 18.657C13.2435 19.415 11.9355 19.415 11.0395 18.657C6.02654 14.429 3.15154 10.426 3.15154 7.673C3.01254 5.34 4.76554 3.33 7.08354 3.164C9.40154 3.33 11.1555 5.34 11.0165 7.673C11.0165 8.547 11.7205 9.256 12.5895 9.256C13.4585 9.256 14.1625 8.547 14.1625 7.673C14.0235 5.34 15.7775 3.33 18.0955 3.164C20.4135 3.33 22.1675 5.34 22.0285 7.673C22.0285 10.426 19.1525 14.429 14.1385 18.657Z" fill="#8496A1"/>
</svg>
