<svg width="19" height="19" viewBox="0 0 19 19" fill="none" xmlns="http://www.w3.org/2000/svg">
<path fill-rule="evenodd" clip-rule="evenodd" d="M16.1 18.1H12.1C11.895 18.1 10.1 18.104 10.1 16.1V12.1C10.1 11.895 11.895 10.1 12.1 10.1H16.1C18.105 10.1 18.1 11.895 18.1 12.1V16.1C18.1 18.104 18.105 18.1 16.1 18.1ZM16.1 7.1H12.1C11.895 7.1 10.1 7.104 10.1 5.1V1.1C10.1 0.895 11.895 0 12.1 0H16.1C18.105 0 18.1 0.895 18.1 1.1V5.1C18.1 7.104 18.105 7.1 16.1 7.1ZM5.1 18.1H1.1C0.895 18.1 0 18.104 0 16.1V12.1C0 11.895 0.895 10.1 1.1 10.1H5.1C7.104 10.1 7.1 11.895 7.1 12.1V16.1C7.1 18.104 7.104 18.1 5.1 18.1ZM5.1 7.1H1.1C0.895 7.1 0 7.104 0 5.1V1.1C0 0.895 0.895 0 1.1 0H5.1C7.104 0 7.1 0.895 7.1 1.1V5.1C7.1 7.104 7.104 7.1 5.1 7.1Z" fill="#DCE9F3"/>
</svg>
