<svg width="49" height="59" viewBox="0 0 49 59" fill="none" xmlns="http://www.w3.org/2000/svg">
<path fill-rule="evenodd" clip-rule="evenodd" d="M42.048 45.8672V57.7042C42.048 58.4362 40.541 58.4922 40.541 58.0052V45.4902L36.623 44.3602V51.5212C36.623 51.5482 36.39 51.7872 36.319 51.8212H12.511C12.44 51.7872 12.207 51.5482 12.207 51.5212V44.3602L8.289 45.4902V58.0052C7.904 58.6562 6.782 58.3162 6.782 57.7042V45.8672C4.352 46.0192 1.782 47.9232 1.506 50.4652C1.28 52.5442 1.89 55.8012 1.475 57.6712C1.291 58.4972 0.53 58.5902 0 58.0052V50.0142C0 47.7782 2.758 45.4622 4.705 44.7692C8.28 43.4962 12.43 42.8712 16.065 41.6592L16.407 41.3982L16.351 37.7262C12.114 35.1362 9.221 30.4432 8.886 25.4422C8.531 20.1542 9.168 14.4762 8.886 9.1462C9.4 4.0812 13.243 0.489198 18.304 0.173198C21.844 -0.0478019 27.147 -0.067802 30.676 0.174198C35.628 0.513198 39.452 4.2102 39.936 9.1542C39.684 14.4412 40.278 20.0422 39.945 25.2922C39.613 30.5122 36.755 35.0222 32.428 37.8252L32.423 41.3992L32.766 41.6592C36.403 42.8512 40.557 43.4862 44.126 44.7692C46.072 45.4682 48.83 47.7732 48.83 50.0142V58.0052C48.3 58.5902 47.539 58.4972 47.355 57.6712C46.954 55.8602 47.523 52.6502 47.322 50.6182C47.054 47.9252 44.629 46.0782 42.048 45.8672ZM38.431 14.3532V9.0012C38.431 5.8332 34.937 2.5112 31.958 1.9062C29.411 1.3892 19.572 1.3932 16.996 1.8802C13.958 2.4542 10.399 5.7812 10.399 9.0012V14.3532C15.691 13.8632 20.969 12.9992 26.306 13.1402L38.431 14.3532ZM38.13 15.8622C34.79 15.5802 31.452 15.0312 28.106 14.8072C22.75 14.4492 16.24 15.0022 10.926 15.8652C10.736 15.8952 10.652 15.7682 10.697 16.0882C10.781 16.6682 11.758 17.6642 12.22 18.0352C16.713 21.6492 29.172 21.5102 34.314 19.3572C35.781 18.7422 37.795 17.5192 38.13 15.8622ZM38.43 18.5762C35.356 21.2222 31.038 22.1562 27.06 22.3522C21.524 22.6252 14.791 22.2952 10.4 18.5762C10.39 23.3072 9.909 27.4762 12.445 31.6822C17.862 40.6632 30.992 40.6712 36.384 31.6812C38.914 27.4632 38.445 23.3182 38.43 18.5762ZM30.896 38.6302C27.666 39.9292 24.41 40.3452 20.975 39.5842C19.928 39.3512 18.969 38.8852 17.934 38.6302V42.4742C17.934 42.9982 14.21 43.5212 13.715 43.9822V50.3912H35.115V43.9822C34.619 43.5122 30.896 42.9842 30.896 42.4742V38.6302ZM11.645 56.3952C12.932 56.1292 12.433 54.1042 11.111 54.4872C10.035 54.7992 10.354 56.6622 11.645 56.3952ZM37.068 56.3552C38.714 56.8722 38.806 54.1532 37.185 54.4892C36.235 54.6852 36.166 56.0722 37.068 56.3552ZM29.029 31.3972C28.084 31.4822 26.816 32.0352 25.677 32.1262C24.998 32.1812 24.107 32.1952 23.429 32.1522C22.218 32.0752 20.605 31.4142 19.667 31.3892C18.983 31.3702 18.603 31.9622 18.978 32.5332C19.636 33.5352 24.486 33.7392 25.694 33.6522C26.356 33.6052 31.245 33.0162 29.804 31.5802C29.645 31.4212 29.254 31.3772 29.029 31.3972ZM28.487 26.0362C28.638 26.8152 29.75 26.8622 29.962 26.1612C30.051 25.8692 30.053 23.6772 29.987 23.3292C29.875 22.7332 29.098 22.4072 28.671 22.8352C28.427 23.0782 28.403 25.6002 28.487 26.0362ZM18.831 25.8962C18.961 26.8522 20.098 26.8842 20.317 26.1612C20.417 25.8312 20.393 23.3882 20.267 23.1032C20.136 22.8042 19.741 22.5762 19.4 22.6692C18.633 22.8772 18.741 25.2272 18.831 25.8962ZM18.95 5.0422C17.887 5.2032 16.143 6.3062 17.628 7.2072C18.305 7.3942 19.058 5.8892 20.398 6.8382C21.733 7.7832 20.867 9.8702 19.23 9.6762C18.662 9.6082 17.303 8.3012 17.054 9.6422C16.912 10.4052 18.153 11.0412 18.799 11.1512C20.617 11.4612 21.836 10.4972 22.557 8.9192L31.204 8.8572L31.805 8.2392C31.917 8.0142 31.59 7.4182 31.423 7.4182H22.456C22.21 5.7882 20.515 4.8052 18.95 5.0422Z" fill="white"/>
</svg>
