<svg width="50" height="65" viewBox="0 0 50 65" fill="none" xmlns="http://www.w3.org/2000/svg">
<path fill-rule="evenodd" clip-rule="evenodd" d="M16.092 64.416C15.986 64.416 15.883 64.384 15.777 64.317C15.459 64.116 14.914 62.325 13.744 58.286C12.948 55.536 12.126 52.696 11.671 51.789L1.121 58.826L1.118 58.828C0.988 58.897 0.859 58.932 0.729 58.932C0.426 58.932 0.163 58.744 0.027 58.431L0 58.369L8.408 34.565C8.327 34.343 7.639 33.388 7.264 32.869C6.988 32.485 6.75 32.154 6.648 31.989C4.763 28.929 3.725 25.591 3.562 22.068C3.409 18.769 4.063 15.416 5.452 12.37C6.841 9.325 8.948 6.626 11.543 4.564C14.312 2.365 17.513 0.94 21.056 0.328C22.318 0.11 23.591 0 24.841 0C28.501 0 32.103 0.957 35.261 2.767C38.274 4.495 40.854 6.973 42.722 9.934C44.578 12.872 45.686 16.223 45.927 19.623C46.187 23.292 45.471 26.887 43.797 30.307C43.334 31.252 42.74 32.125 42.166 32.968C41.806 33.497 41.434 34.043 41.103 34.596L49.5 58.369L49.473 58.431C49.336 58.744 49.074 58.932 48.77 58.932C48.641 58.932 48.512 58.897 48.386 58.83L48.375 58.824L37.868 51.809L34.009 63.856C33.875 64.331 33.57 64.402 33.401 64.402C33.228 64.402 33.038 64.333 32.835 64.195L32.788 64.163L24.835 42.059L24.573 42.107L16.459 64.282L16.411 64.314C16.304 64.383 16.2 64.416 16.092 64.416ZM33.187 61.399L37.098 50.05L37.962 50.244L47.398 56.447L40.052 35.569C39.784 35.74 39.137 36.414 38.912 36.648C38.742 36.825 38.609 36.964 38.54 37.023C35.206 39.866 30.862 41.64 26.299 42.024L33.187 61.399ZM16.313 61.399L23.199 42.028C18.216 41.68 13.451 39.488 9.407 35.686L2.101 56.447L11.538 50.244L12.402 50.05L16.313 61.399ZM24.748 1.327C24.214 1.327 23.671 1.349 23.133 1.389C16.13 1.923 10.08 6.027 6.951 12.37C3.809 18.738 4.262 26.036 8.162 31.892C11.839 37.414 18.053 40.71 24.783 40.711C31.549 40.711 37.758 37.381 41.393 31.805C45.415 25.635 45.71 18.112 42.182 11.682C38.625 5.198 32.108 1.327 24.748 1.327ZM24.84 38.09C21.541 38.09 18.321 37.166 15.526 35.418C12.625 33.605 10.369 31.002 8.999 27.893C7.865 25.318 7.404 22.591 7.628 19.79C7.838 17.156 8.674 14.551 10.046 12.256C11.385 10.016 13.225 8.093 15.367 6.693C17.657 5.198 20.211 4.317 22.96 4.076C23.539 4.025 24.122 3.999 24.692 3.999C28.558 3.999 32.161 5.186 35.113 7.431C37.859 9.521 39.906 12.389 41.033 15.725C42.149 19.031 42.253 22.495 41.335 25.744C40.34 29.263 38.158 32.362 35.025 34.707C32.068 36.92 28.546 38.09 24.84 38.09ZM24.513 5.35C23.962 5.35 23.401 5.376 22.845 5.429C17.617 5.928 13.057 9.125 10.647 13.981C8.153 19.005 8.4 24.752 11.308 29.354C14.266 34.035 19.14 36.721 24.68 36.721C31.053 36.721 38.321 32.939 40.191 24.488C41.237 19.762 40.13 14.946 37.153 11.274C34.1 7.509 29.493 5.35 24.513 5.35ZM17.545 32.531C17.385 32.531 17.257 32.477 17.165 32.371C17.026 32.211 16.987 31.947 17.044 31.562C17.216 30.404 17.753 29.076 18.272 27.791C18.744 26.623 19.232 25.417 19.423 24.382C19.432 24.333 19.443 24.286 19.453 24.239C19.488 24.088 19.512 23.978 19.47 23.838C19.397 23.598 17.472 22.285 16.198 21.415C13.761 19.752 12.606 18.931 12.534 18.575L12.525 18.535L12.653 18.074L12.674 18.047C12.833 17.846 13.218 17.777 13.748 17.736C13.9 17.724 14.15 17.718 14.511 17.718C15.167 17.718 16.099 17.737 17.085 17.757C18.172 17.778 19.295 17.801 20.168 17.801C21.08 17.801 21.414 17.775 21.537 17.755L24.072 10.071C24.15 9.733 24.431 9.492 24.753 9.492C24.935 9.492 25.105 9.567 25.243 9.71L25.27 9.738L27.951 17.723L36.722 17.886L36.848 18.725L36.808 18.781C36.444 19.293 34.73 20.46 33.073 21.59C31.886 22.398 30.097 23.618 30.03 23.838C29.987 23.98 30.012 24.089 30.046 24.239C30.057 24.286 30.068 24.333 30.077 24.382C30.266 25.41 30.754 26.615 31.226 27.781C31.749 29.073 32.29 30.408 32.456 31.562C32.503 31.892 32.526 32.158 32.362 32.346C32.259 32.464 32.105 32.521 31.891 32.521C31.864 32.521 31.836 32.52 31.806 32.518L31.757 32.515L24.702 27.679L18.202 32.327L18.19 32.333C17.929 32.466 17.718 32.531 17.545 32.531ZM15.262 19.097C15.847 19.618 17.146 20.496 18.302 21.278C20.129 22.512 20.881 23.04 20.968 23.295C21.114 23.72 20.609 25.192 19.76 27.566C19.407 28.553 19.071 29.491 18.908 30.076L24.813 26.069L30.475 30.04L28.498 23.438L34.133 19.097H27.175L24.683 12.501L22.327 19.097H15.262Z" fill="white"/>
</svg>
