<svg width="57" height="62" viewBox="0 0 57 62" fill="none" xmlns="http://www.w3.org/2000/svg">
<path fill-rule="evenodd" clip-rule="evenodd" d="M26.4057 0.173744C30.9077 5.97474 38.0247 9.80074 45.3487 10.6557L50.1907 5.87774L50.5987 5.74574C50.8657 5.76074 51.0377 5.94174 51.2337 6.08874C52.0827 6.72574 55.0667 9.69574 55.7087 10.5417C55.8817 10.7697 56.0877 10.9707 56.0537 11.2927C55.9977 11.8287 52.1627 15.0437 51.6717 15.8467C51.3607 22.1117 51.9887 28.6337 51.6497 34.8687C51.2837 41.5897 47.9887 48.3527 42.9707 52.8117C38.1667 57.0827 31.6647 58.9237 25.8347 61.3697C20.0207 58.8157 13.6587 57.0917 8.8187 52.8117C-3.5053 41.9177 0.967699 26.5167 0.140699 11.9767C0.167699 11.6507 0.155699 11.2337 0.546699 11.1517C8.9427 11.2397 17.6217 8.42274 23.5577 2.39574C23.9137 2.03474 25.2567 0.234744 25.4407 0.124744C25.7367 -0.0522563 26.1347 -0.0452563 26.4057 0.173744ZM26.0297 1.77674H25.7597C25.7447 1.93874 25.6687 2.07074 25.5587 2.18874C21.1837 6.91074 15.5897 10.1807 9.2597 11.5977C6.7107 12.1677 4.1227 12.3577 1.5207 12.5407L1.5247 35.1357C2.0377 41.4647 4.9197 47.4697 9.6447 51.7167C14.2197 55.8277 20.2677 57.5017 25.8287 59.8777C30.9087 57.7837 36.7737 56.0917 41.1067 52.6007C46.4827 48.2697 49.8237 41.7667 50.2737 34.8687L50.1987 17.2577L44.9247 22.5597C44.6587 29.8347 46.0087 36.7647 42.1157 43.3307C38.4257 49.5537 32.2717 51.6217 25.8477 54.0727C21.6757 52.2257 17.0617 51.0047 13.5677 47.9507C4.3827 39.9237 7.3927 29.1097 6.8847 18.2757C6.8627 17.9927 6.9367 17.7707 7.1557 17.5877C7.5107 17.2887 9.5487 17.0727 10.1987 16.9157C16.0297 15.5167 21.1007 13.0867 25.8357 9.44374L26.1627 9.51774C30.1167 12.6337 34.6347 15.0337 39.5177 16.3747L44.0697 11.9817C37.1197 10.5857 31.0297 7.36774 26.2307 2.18874C26.1207 2.07074 26.0447 1.93874 26.0297 1.77674ZM50.6107 7.39474L27.6827 30.2017L26.7817 30.1427L21.6767 25.0767L17.7737 28.8347L27.2027 38.2167L54.3947 11.1607L50.6107 7.39474ZM38.4247 17.3957C36.0007 16.7687 33.6037 15.7577 31.3997 14.5887C29.4627 13.5607 27.7067 12.2637 25.8477 11.1197C20.6877 14.9417 14.6757 17.6687 8.2767 18.6337L8.2647 34.1827C8.6247 40.3717 12.0887 46.0657 17.5407 49.0667C20.1407 50.4977 23.2107 51.4397 25.9527 52.6037C31.2787 50.4647 36.2177 48.9507 39.8567 44.2337C44.5787 38.1107 43.4207 31.3627 43.5187 24.1077L27.3327 39.8677L26.9567 39.8397L16.4597 29.4537L16.1157 28.8217L16.2477 28.4167L21.0677 23.6207C21.3407 23.3407 21.8027 23.3337 22.1157 23.5527L27.3217 28.6187L38.4247 17.3957Z" fill="white"/>
</svg>
