<svg width="54" height="54" viewBox="0 0 54 54" fill="none" xmlns="http://www.w3.org/2000/svg">
<path fill-rule="evenodd" clip-rule="evenodd" d="M26.1 0C41.912 0 53.1 12.088 53.1 27C53.1 41.912 41.912 54 26.1 54C12.088 54 0 41.912 0 27C0 12.088 12.088 0 26.1 0Z" fill="#EAF2F8"/>
<path fill-rule="evenodd" clip-rule="evenodd" d="M27.3732 16.8777C27.3732 16.3937 27.7662 16.0017 28.2512 16.0017C33.0952 16.0067 37.0202 19.9277 36.1262 24.7657C36.1262 25.2507 36.6332 25.6427 36.1482 25.6427C35.6632 25.6427 35.2712 25.2507 35.2712 24.7657C35.2662 20.8957 32.1262 17.7587 28.2512 17.7547C27.7662 17.7547 27.3732 17.3627 27.3732 16.8777ZM28.2512 21.2607C30.1892 21.2607 31.7612 22.8297 31.7612 24.7657C31.7612 25.2507 32.1532 25.6427 32.6382 25.6427C33.1232 25.6427 33.5162 25.2507 33.5162 24.7657C33.5132 21.8627 31.1572 19.5107 28.2512 19.5077C27.7662 19.5077 27.3732 19.8997 27.3732 20.3837C27.3732 20.8677 27.7662 21.2607 28.2512 21.2607ZM36.2302 30.6727C37.2882 31.7327 37.2882 33.4487 36.2302 34.5097L35.4312 35.4287C28.2442 42.3007 10.7562 24.8377 17.5302 17.6367L18.5392 16.7607C19.6022 15.7327 21.2932 15.7487 22.3362 16.7957C22.3632 16.8227 23.9892 18.9327 23.9892 18.9327C24.9922 19.9837 24.9892 21.6367 23.9832 22.6857L22.9672 23.9617C24.1032 26.7177 26.2922 28.9087 29.0492 30.0487L30.3352 29.0277C31.3842 28.0237 33.0392 28.0207 34.0912 29.0217C34.0912 29.0217 36.2032 30.6447 36.2302 30.6727ZM35.0222 31.9467C35.0222 31.9467 32.9222 30.3327 32.8952 30.3057C32.5192 29.9337 31.9122 29.9337 31.5362 30.3057C31.5122 30.3307 29.7422 31.7387 29.7422 31.7387C29.5002 31.9317 29.1732 31.9827 28.8832 31.8717C25.3052 30.5407 22.4802 27.7247 21.1432 24.1527C21.0242 23.8587 21.0722 23.5237 21.2702 23.2757C21.2702 23.2757 22.6802 21.5077 22.7042 21.4847C23.0772 21.1087 23.0772 20.5027 22.7042 20.1267C22.6772 20.1007 21.0612 18.0017 21.0612 18.0017C20.6802 17.6607 20.0992 17.6757 19.7362 18.0357L18.7272 18.9127C13.7762 24.8587 28.9322 39.1557 34.1482 34.2317L34.9482 33.3107C35.3372 32.9507 35.3702 32.3467 35.0222 31.9467Z" fill="#5F9EC5"/>
</svg>
