<svg width="114" height="87" viewBox="0 0 114 87" fill="none" xmlns="http://www.w3.org/2000/svg">
<path fill-rule="evenodd" clip-rule="evenodd" d="M113.862 76.1572C113.684 77.3012 112.893 77.8642 111.808 77.9902C108.765 78.3452 105.089 77.7172 101.974 77.9832C102.401 86.8542 90.791 90.2022 86.143 82.6362C85.174 81.0592 85.343 79.5662 84.628 77.9732L32.939 77.9682C32.228 81.7902 30.898 84.8782 27.031 86.2812C21.257 88.3752 15.484 84.0612 15.607 77.9832L7.31302 77.9972C7.22602 78.7612 7.27002 80.0412 6.33602 80.2172C5.72002 80.3332 1.64602 80.3162 1.12602 80.1602C-0.264978 79.7392 -0.0219781 75.4432 0.0910219 74.2102C0.281022 72.1182 1.22102 72.0362 3.15002 72.1342L3.14202 20.7162C3.09102 19.6212 4.75902 17.5192 5.77802 17.5192H27.232V19.1902H6.05502C5.92902 19.1902 4.81002 20.5292 4.81002 20.7232V66.5602H76.784V20.1662C76.784 20.0512 75.683 19.1902 75.538 19.1902H57.683V17.5192H76.092C76.705 17.5192 78.445 19.2692 78.445 19.8872V27.4102L78.86 27.8282H95.193C95.935 27.8282 97.166 28.9502 97.66 29.5242C101.192 33.6182 106.188 41.7712 109.234 46.5752C110.253 48.1832 111.501 49.6772 111.675 51.6412C112.168 57.2092 111.293 63.5122 111.653 69.1602C111.728 69.4752 113.036 69.6972 113.453 70.1932C114.046 70.8982 114.025 75.1112 113.862 76.1572ZM23.901 85.0962C33.358 85.5192 33.129 69.9202 23.013 71.3702C15.063 72.5112 15.604 84.7252 23.901 85.0962ZM76.784 68.2312H4.81002V73.3872C4.15102 74.1512 2.95302 73.7012 2.04102 73.8052V78.5422L5.64102 78.5432L5.67802 76.7682L6.09402 76.3522L15.43 76.2752C16.429 74.6422 16.872 73.0372 18.371 71.7122C23.338 67.3232 31.028 69.9422 32.492 76.3132H76.784V68.2312ZM88.718 83.1082C95.311 89.5572 104.834 79.3542 98.278 73.0672C91.876 66.9292 82.231 76.7652 88.718 83.1082ZM110.003 57.3642L106.802 57.6252V61.8402L110.003 62.1012V57.3642ZM112.217 71.2972L110.003 70.6002V63.7732C105.647 64.1462 104.429 63.3312 104.732 58.8852C104.984 55.1872 106.919 55.6452 110.003 55.6932V51.3742C105.651 45.0662 101.483 36.9532 96.667 31.0822C96.246 30.5692 95.323 29.5002 94.639 29.5002H78.445V76.3132H85.089C86.804 69.0822 96.13 66.9272 100.543 73.1572C101.314 74.2452 101.451 75.2382 102.113 76.3132H111.802L112.217 75.8952V71.2972ZM83.55 50.1362C82.274 50.0112 82.152 49.9032 82.028 48.6042C81.563 43.7602 82.417 38.1762 82.031 33.2492C82.178 32.1192 82.518 32.0932 83.55 31.9922C85.975 31.7552 90.816 31.7862 93.267 31.9972C93.768 32.0392 94.286 32.0222 94.7 32.3682L105.533 48.3512C106.197 49.2502 105.68 50.0962 104.618 50.1332C97.863 49.6082 90.191 50.7842 83.55 50.1362ZM93.392 33.8042C90.197 34.0802 86.912 33.2042 83.705 33.9582V48.1692H103.082L93.392 33.8042ZM89.18 53.5302L89.269 54.6642C88.819 55.3462 84.547 55.2252 83.564 55.1362C82.311 55.0212 82.102 54.8162 82.361 53.5032C82.638 53.0462 88.584 52.9682 89.18 53.5302ZM49.517 23.3702C46.596 23.7052 38.567 23.7272 35.669 23.3762C33.293 23.0892 32.116 20.9882 31.928 18.7822C31.7 16.1022 31.569 7.92716 32.061 5.52016C32.436 3.68316 33.603 2.69616 35.254 2.04316C35.677 1.87716 36.461 1.99916 36.608 1.87716C36.765 1.74816 37.866 -2.30584 38.305 1.91516L41.615 1.90116C41.594 1.12816 41.724 0.388162 42.596 0.230162L43.244 0.710162L43.288 1.91516H46.888L47.008 0.504162C48.405 -0.363838 48.492 0.699162 48.569 1.89216C51.023 1.81916 52.982 3.51016 53.255 5.95416C53.587 8.93116 53.575 16.3412 53.255 19.3302C53.029 21.4302 51.674 23.1232 49.517 23.3702ZM33.599 19.3302C33.599 20.7152 35.241 21.5982 36.492 21.7132C40.612 22.0912 45.316 21.4142 49.503 21.6842C50.218 21.6652 51.593 20.1422 51.593 19.6082V9.15916H33.599V19.3302ZM48.549 3.58516C48.597 4.25916 48.504 4.93916 47.815 5.20416L46.925 4.93816L46.888 3.58416L43.288 3.58516C43.443 6.10816 41.917 5.62116 41.458 3.56916L38.612 3.61716L37.856 5.22516L36.977 4.91616L36.474 3.60316C34.387 3.64916 33.511 5.60216 33.599 7.48716H51.593C51.876 5.35016 50.86 3.50616 48.549 3.58516ZM45.103 19.4512C42.261 18.9862 41.577 12.1452 45.155 11.4472C50.059 10.4892 50.377 20.3142 45.103 19.4512ZM45.924 12.8962C43.225 12.7642 44.359 19.9812 46.625 17.6702C47.528 16.7492 47.539 12.9742 45.924 12.8962ZM41.92 17.3752C41.698 20.5032 36.305 20.3892 36.395 17.2672L37.573 16.9382C37.916 18.0602 39.551 18.6462 40.104 17.5192C41.184 15.3162 38.382 16.1672 38.003 15.6832C37.509 14.6042 38.865 14.0412 39.136 13.0632C38.49 13.1432 36.205 13.2062 36.384 12.1182C36.575 10.9542 40.671 11.3182 41.602 11.6912C42.109 12.9882 40.059 13.5322 40.223 14.5712C40.256 14.7782 42.075 15.1992 41.92 17.3752ZM22.518 28.2382L39.281 28.1002C39.972 27.8932 41.219 29.1412 41.489 29.1412C41.622 29.1412 42.769 28.2152 43.697 28.1002C48.688 27.4862 54.896 28.5592 60.022 28.1222C63.412 29.1052 62.998 32.4542 62.956 35.3392C65.339 35.3902 67.146 36.5952 67.386 39.0992C67.622 41.5662 67.746 50.5282 67.308 52.7032C67.024 54.1192 65.736 55.0062 64.359 55.1662C64.122 56.5472 64.981 58.6472 63.234 59.1882C60.014 60.1862 59.77 57.6592 59.618 55.1382L23.514 55.1252C23.043 55.2022 23.845 59.8342 20.194 59.3042C17.946 58.9782 18.825 56.8222 18.613 55.1732C17.305 54.8322 16.112 54.3742 15.736 52.9142C14.766 49.1442 16.144 42.1692 15.664 38.0572C16.346 36.0422 18.06 35.4572 20.022 35.3392C20.103 32.5762 19.31 29.4122 22.518 28.2382ZM61.973 57.6372L62.678 57.1802L62.667 55.1342L61.281 55.1372C61.236 55.5722 61.557 57.6232 61.973 57.6372ZM61.005 53.4642C62.38 53.3252 65.049 54.0392 65.589 52.3662C65.53 48.3162 66.084 43.6432 65.726 39.6562C65.398 36.0152 61.365 36.7622 61.005 38.8352V53.4642ZM61.275 35.4852C61.407 34.7902 61.377 32.0662 61.223 31.3712C60.959 30.1892 60.015 29.8642 58.942 29.7652C54.036 29.3152 48.248 30.0102 43.293 29.9242C43.125 30.0792 42.458 30.6772 42.458 30.7542V42.5972H59.344V38.5562C59.344 37.4312 61.124 36.2842 61.275 35.4852ZM58.669 44.2512L43.487 44.0512C41.789 44.4282 41.633 47.7132 43.486 48.1092L58.669 47.9082C59.672 47.3062 59.658 44.8452 58.669 44.2512ZM23.634 53.4642H59.344V49.5632H23.634V53.4642ZM23.769 47.6152L24.664 48.1072C29.178 47.8352 34.596 48.6862 39.002 48.1742C41.153 47.9242 40.965 45.5622 39.845 44.2512L24.664 44.0522C23.096 44.3452 23.609 46.4132 23.769 47.6152ZM22.657 36.7482C23.901 38.5262 23.637 40.5382 23.636 42.5962L40.797 42.5972V31.3112C40.797 31.1862 40.034 30.1512 39.847 30.0382L22.999 29.8362C21.303 30.3332 21.494 34.2872 21.674 35.7792C21.748 36.3952 22.309 36.2512 22.657 36.7482ZM20.313 57.3662L21.386 57.3302L21.697 55.1362L20.31 55.1342L20.313 57.3662ZM17.253 39.3792C16.887 43.4552 17.452 48.2262 17.389 52.3662C17.561 53.8462 21.758 53.7462 21.973 53.0452V39.1132C21.973 37.1882 17.575 35.8022 17.253 39.3792ZM15.883 4.50116H27.509V6.17316H15.883V4.50116ZM24.741 11.6672H7.85502V9.99516H24.741V11.6672ZM9.82702 4.50116H13.127V6.17316H9.82702V4.50116ZM0.285022 9.99516H5.81702V11.6672H0.285022V9.99516Z" fill="#5F9EC5"/>
</svg>
