<svg width="112" height="84" viewBox="0 0 112 84" fill="none" xmlns="http://www.w3.org/2000/svg">
<path fill-rule="evenodd" clip-rule="evenodd" d="M0.405 1.58436L0.14 1.32836C-0.298 0.645364 0.503 -0.0456355 1.175 0.00236453L85.538 0.142365L85.939 0.786365C85.865 18.0724 86.436 35.4544 86.068 52.7534C86.024 54.8304 85.515 57.0854 85.832 59.2454L86.222 59.6394C87.212 59.1414 89.233 60.3924 89.575 60.3714C89.786 60.3584 90.334 59.7664 91.134 59.6684C92.974 59.4414 102.273 59.4034 103.793 59.7974C106.289 60.4454 105.907 63.4204 105.87 65.4324C107.683 65.1124 109.056 66.4104 109.267 68.1734C109.498 70.0984 109.496 75.6694 109.238 77.5754C108.919 79.9414 107.159 79.8964 106.956 80.5184C106.778 81.0624 106.979 81.8494 106.915 82.4394H111.217C111.908 82.4394 112.184 83.4434 111.869 84.0094H0.405L0 82.8414C0.021 82.7644 0.873 82.4394 0.927 82.4394H7.315V23.6964C7.315 23.6504 7.717 23.2334 7.84 23.1764L55.954 23.0284L57.375 23.3034V82.3084C57.604 82.6824 57.895 82.6704 58.275 82.7144C61.933 83.1454 67.356 82.6564 71.099 82.4564C71.459 82.4364 71.668 82.6014 71.974 82.7014L71.947 80.1124C70.316 80.0134 69.828 78.7464 69.659 77.3084C69.425 75.3244 69.389 70.1484 69.653 68.2014C69.9 66.3814 71.119 65.1344 73.021 65.4324C73.095 63.6684 72.6 61.8614 73.92 60.4474C74.084 60.2704 74.845 59.6744 74.975 59.6744H84.492V1.58436H0.405ZM31.041 24.6114H8.879V82.7014H30.65L31.041 82.3084V24.6114ZM56.072 24.6114H32.345V26.9664H56.072V24.6114ZM56.072 28.5364H32.606L32.382 82.2754C32.547 82.8684 33.973 82.4424 34.432 82.4374C33.951 81.6644 34.307 80.7624 34.161 79.9634C34.047 79.3414 33.497 79.0524 33.382 78.1294C33.215 76.7924 33.636 75.6544 33.66 74.4694C33.727 71.0464 33.427 67.6404 33.377 64.2644C33.347 62.2014 32.913 56.6194 34.443 55.3694C36.184 53.9454 42.514 54.2784 42.514 57.4504V64.9084H50.466C51.495 64.9084 52.289 67.0684 52.393 67.9464C52.63 69.9584 52.65 74.8054 52.421 76.8134C52.21 78.6694 50.915 79.8184 49.03 79.5594L48.771 82.4394H56.072V28.5364ZM34.953 57.1894C34.524 59.2484 35.27 62.6864 34.953 64.9084H40.949V57.1894C40.949 57.0714 40.694 56.7674 40.618 56.6034C40.138 56.1614 35.977 56.0984 35.474 56.4044C35.323 56.6034 34.995 56.9854 34.953 57.1894ZM88.663 70.6644V61.8994C88.663 61.5684 87.667 61.0264 87.243 60.9694C84.984 60.6654 78.895 60.7564 76.527 60.9704C75.528 61.0614 74.627 61.3624 74.379 62.4784C74.266 62.9844 74.207 65.0614 74.317 65.5094C74.384 65.7814 74.916 65.8204 75.108 66.0724C76.222 67.5284 75.847 68.9464 75.89 70.6644C75.983 70.7944 76.223 70.4034 76.279 70.4034H88.272C88.328 70.4034 88.569 70.7954 88.663 70.6644ZM90.228 61.8994V70.6644C90.419 70.7344 90.539 70.4034 90.619 70.4034H102.352C102.433 70.4034 102.721 70.7634 103.002 70.6634C103.085 69.6304 102.859 68.4634 103.064 67.4534C103.247 66.5524 104.177 65.9514 104.302 65.2954C104.402 64.7684 104.402 62.6934 104.302 62.1664C104.147 61.3454 103.355 61.0624 102.619 60.9774C100.349 60.7144 94.178 60.7084 91.917 60.9774C91.419 61.0364 90.368 61.4094 90.228 61.8994ZM34.953 78.2534H49.684C50.21 78.2534 50.793 77.3934 50.87 76.8264C51.106 75.0894 51.067 69.6994 50.861 67.9134C50.691 66.4364 49.983 66.3174 48.651 66.2064L34.953 66.4774V78.2534ZM74.309 78.7614C74.333 78.1044 74.552 77.4814 74.594 76.8234C74.727 74.7664 74.863 70.0934 74.567 68.1954C74.252 66.1734 71.488 66.4104 71.2 67.9224C70.99 69.0214 70.989 76.7494 71.194 77.8604C71.416 79.0624 73.368 78.7784 74.309 78.7614ZM104.567 78.7774C105.572 78.6674 107.424 79.2734 107.69 77.8534C107.898 76.7344 107.903 69.0304 107.691 67.9224C107.377 66.2704 104.696 66.1434 104.331 68.7264L104.567 78.7774ZM77.116 71.7674C75.648 71.9604 75.43 74.6014 76.8 74.8514C78.621 74.5504 87.371 75.3494 88.298 74.6144C88.829 74.1944 88.92 72.2344 88.236 72.0094L77.116 71.7674ZM100.527 71.9724C97.224 71.9984 93.921 71.9544 90.619 71.9724C90.31 71.9724 89.288 74.6334 91.647 74.8664C93.351 75.0354 100.871 75.1104 102.244 74.7364C103.435 74.4124 103.434 71.9494 101.495 71.7504C100.927 71.6924 100.658 71.9724 100.527 71.9724ZM75.887 78.7764H103.004L103.001 75.8984C102.611 76.0914 102.289 76.1634 101.845 76.1744C97.625 76.2804 93.631 76.0364 89.531 75.6834C89.226 75.6574 88.841 76.1324 88.286 76.1754C84.305 76.4864 79.911 75.9124 75.886 76.1584L75.887 78.7764ZM36.253 81.6534C37.363 79.0864 34.844 79.0474 35.52 81.2164C35.628 81.5624 35.895 81.7244 36.253 81.6534ZM45.121 79.5614H37.821L37.562 82.7014C37.662 82.8274 37.894 82.4394 37.951 82.4394H45.382L45.121 79.5614ZM47.467 79.5604L46.426 79.5624L46.686 81.6564L47.467 81.6554V79.5604ZM74.322 80.0864C73.063 79.6744 72.938 81.8194 73.675 82.1754C74.284 82.4694 74.343 80.3574 74.322 80.0864ZM84.492 80.3464H75.887L75.366 82.4394H84.492V80.3464ZM103.264 80.3464H86.056V82.4394H103.525L103.264 80.3464ZM41.732 11.7894C41.647 12.0464 41.992 12.3574 41.992 12.4434V18.9864L40.517 19.5444L23.126 19.3414L22.734 18.9494C22.858 16.6164 21.671 13.8594 23.089 11.7894H41.732ZM40.689 13.3604H24.002V18.0704H40.297L40.689 17.6774V13.3604ZM65.125 47.4354C66.123 47.2164 69.71 47.2464 70.808 47.3714C71.21 47.4174 71.897 47.5344 72.11 47.8964C72.392 48.3764 72.383 57.8854 72.252 59.0354C72.202 59.4754 72.226 59.6354 71.827 59.9174C71.127 60.4114 64.751 60.4084 64.275 59.6844L64.154 48.2924C64.197 47.7734 64.669 47.5344 65.125 47.4354ZM70.934 48.9464H65.458V58.6284H70.934V48.9464ZM65.886 68.5494L66.723 67.7004L62.72 63.5904C62.398 63.5904 58.813 67.0894 58.717 67.4374C58.512 68.1864 59.161 68.4534 59.8 68.2674C60.466 68.0744 61.309 66.5024 62.069 66.2164V74.1974C62.069 74.6894 63.372 74.6894 63.372 74.1974V66.2164L65.886 68.5494ZM33.406 17.1684C33.893 16.4114 33.434 16.1904 33.419 15.5524C33.405 14.9794 33.835 14.1724 33.129 13.7494C32.73 13.5094 31.185 13.4884 30.897 13.8694C30.352 14.7744 31.323 14.6224 31.495 15.0854C31.549 15.2314 31.351 15.5624 31.441 15.7264C31.724 16.2454 32.804 15.9114 32.604 16.7604L30.782 16.5014C30.626 17.9424 32.697 18.2694 33.406 17.1684ZM69.777 50.2384L66.538 50.0294C66.216 50.2314 66.009 52.8094 66.494 53.2704C67.108 53.8954 69.072 53.7374 69.854 53.3574L69.777 50.2384Z" fill="#EC4D76"/>
</svg>
