<svg width="11" height="17" viewBox="0 0 11 17" fill="none" xmlns="http://www.w3.org/2000/svg">
<path fill-rule="evenodd" clip-rule="evenodd" d="M4.932 16.276C4.71 16.275 4.49 16.226 4.289 16.132C3.608 15.829 3.259 15.067 3.475 14.354L4.534 10.851H2.038C0.914 10.852 0.002 9.94205 0 8.81805C0 8.61805 0.029 8.41805 0.088 8.22605L2.139 1.44505C2.396 0.583045 3.191 -0.00595458 4.091 4.54195e-05H6.596C7.571 4.54195e-05 8.36 0.790045 8.359 1.76405C8.359 1.97505 8.321 2.18405 8.247 2.38105L7.105 5.42505H8.84C9.964 5.42505 10.876 6.33605 10.876 7.45905C10.876 7.86705 10.753 8.26505 10.525 8.60205L6.182 15.587C5.91 16.014 5.439 16.274 4.932 16.276Z" fill="#5F9EC5"/>
</svg>
