<svg width="31" height="31" viewBox="0 0 31 31" fill="none" xmlns="http://www.w3.org/2000/svg">
<path fill-rule="evenodd" clip-rule="evenodd" d="M15.274 30.549C6.838 30.549 0 23.711 0 14.375C0 6.839 6.838 0 15.274 0C23.706 0.009 30.539 6.843 30.548 14.375C30.548 23.711 23.71 30.549 15.274 30.549ZM15.274 2.546C8.244 2.546 2.545 8.245 2.545 14.375C2.545 22.304 8.244 28.003 15.274 28.003C22.301 27.996 27.995 22.301 28.003 14.375C28.003 8.245 22.304 2.546 15.274 2.546ZM16.547 24.185C15.844 24.185 15.274 23.615 15.274 22.912V14.375H14.001C13.298 14.375 12.728 14.705 12.728 14.002C12.728 13.299 13.298 12.729 14.001 12.729H15.274C16.68 12.729 17.82 13.869 17.82 14.375V22.912C17.82 23.615 17.25 24.185 16.547 24.185ZM15.274 10.183C14.22 10.183 13.365 9.328 13.365 8.274C13.365 7.22 14.22 6.364 15.274 6.364C16.329 6.364 17.183 7.22 17.183 8.274C17.183 9.328 16.329 10.183 15.274 10.183Z" fill="#EC4D76"/>
</svg>
