<svg width="44" height="55" viewBox="0 0 44 55" fill="none" xmlns="http://www.w3.org/2000/svg">
<path fill-rule="evenodd" clip-rule="evenodd" d="M41.3397 25.906C40.6297 28.206 39.8957 30.584 39.1127 32.903C39.0807 32.998 39.0317 33.157 38.9747 33.339C38.5977 34.558 38.3817 35.175 38.1757 35.385C37.8127 35.754 37.2257 35.776 36.7087 35.796C36.4177 35.808 36.1157 35.82 35.9277 35.892L35.8257 35.914L15.3877 37.236C15.3807 37.248 15.3747 37.26 15.3677 37.271C15.2227 37.568 14.2727 40.541 14.2107 40.891C14.2187 41.463 14.7217 42.056 15.2817 42.158L42.2227 42.166C42.9357 42.178 43.5147 42.583 43.6707 43.175C43.8127 43.714 43.5537 44.254 42.9937 44.582L42.8197 44.63L15.3717 44.692H15.3517C13.5547 44.593 11.9697 43.072 11.8187 41.302C11.7247 40.207 12.1087 39.185 12.4787 38.197C12.7797 37.394 13.0647 36.634 13.1017 35.858L3.7717 11.544C3.7057 11.54 3.6057 11.536 3.4547 11.536C3.1897 11.536 2.8537 11.547 2.5277 11.559C2.1957 11.57 1.8527 11.582 1.5747 11.582C1.3367 11.582 1.1717 11.574 1.0547 11.555C0.453697 11.46 0.019697 10.949 0.000697002 10.312C-0.018303 9.702 0.352697 9.208 0.923697 9.082C1.3127 8.997 2.2967 8.984 2.8477 8.984C3.6207 8.984 4.3567 9.009 4.6787 9.046C4.9617 9.078 5.2607 9.142 5.5317 9.394L5.6187 9.523L8.4897 17.017L42.9387 17.234L43.1237 17.289C43.6537 17.632 43.8157 18.139 43.6037 18.797C42.8067 21.154 42.0607 23.57 41.3397 25.906ZM9.5287 19.553L15.4677 34.697L36.3857 33.267L40.7687 19.553H9.5287ZM38.4327 14.794L38.4287 14.872C38.3267 15.497 37.8827 15.886 37.2697 15.886C36.6307 15.886 35.9187 15.449 35.9187 14.823V7.117H31.4837L31.4107 7.109C30.9087 7.001 30.5557 6.516 30.5517 5.928C30.5467 5.344 30.8937 4.887 31.4347 4.763L31.5317 4.755C31.7617 4.768 32.0067 4.775 32.2807 4.775C32.8577 4.775 33.4747 4.745 34.0707 4.716C34.6807 4.686 35.3117 4.656 35.9157 4.656C36.4387 4.656 36.8877 4.679 37.2887 4.726C38.1717 4.83 38.3767 5.26 38.4457 6.015C38.5827 7.501 38.5197 9.113 38.4577 10.672C38.4037 12.051 38.3477 13.478 38.4327 14.794ZM16.9697 7.759C17.3207 8.058 17.6857 8.796 18.0727 9.576C18.2347 9.903 18.3997 10.237 18.5497 10.502L23.6767 4.128C23.9007 3.837 24.3367 3.793 24.5757 3.793C24.7217 3.793 25.2157 3.813 25.4757 4.073C25.8117 4.409 25.8097 5.258 25.6297 5.614L25.5927 5.672L19.6357 13.201C19.3807 13.512 18.9837 13.919 18.4507 13.919C18.2037 13.919 17.9597 13.831 17.7257 13.656C17.3907 13.407 15.1917 9.599 15.0537 9.253C14.8697 8.793 14.9027 8.342 15.1457 7.983C15.3717 7.65 15.7487 7.451 16.1537 7.451C16.4527 7.451 16.7347 7.558 16.9697 7.759ZM29.3957 14.793L29.3927 14.868C29.2937 15.497 28.8527 15.888 28.2417 15.888C27.6007 15.888 26.8827 15.433 26.8827 14.823V2.666H13.6897V15.085C13.6897 15.547 13.0607 15.892 12.4987 15.892C11.9837 15.892 11.3987 15.588 11.2977 14.735L11.2957 14.693L11.3657 1.012L11.4317 0.812C11.7927 0.315 12.1767 0.189 12.7177 0.14C13.7437 0.045 14.8737 0 16.1727 0C17.6437 0 19.1677 0.059 20.6407 0.115C22.1117 0.171 23.6317 0.23 25.0947 0.23C26.1447 0.23 27.0727 0.2 27.9297 0.139L27.9587 0.138C28.8487 0.152 29.3237 0.618 29.4097 1.564C29.6137 3.79 29.5197 6.209 29.4297 8.548C29.3487 10.636 29.2657 12.795 29.3957 14.793ZM15.4947 45.869C15.7207 45.84 15.9447 45.825 16.1627 45.825C18.7067 45.825 20.1537 47.779 20.4227 49.595C20.6897 51.397 19.8827 53.541 17.4787 54.268C16.9547 54.427 16.4407 54.508 15.9527 54.508C13.4367 54.508 11.9847 52.422 11.8507 50.362C11.7227 48.379 12.7987 46.22 15.4947 45.869ZM16.1287 52.445C17.3897 52.445 18.4107 51.423 18.4107 50.163C18.4107 48.903 17.3897 47.881 16.1287 47.881C14.8687 47.881 13.8467 48.903 13.8467 50.163C13.8467 51.423 14.8687 52.445 16.1287 52.445ZM34.6227 45.871C34.8437 45.845 35.0637 45.832 35.2757 45.832C36.5377 45.832 37.6107 46.294 38.3797 47.169C39.0577 47.941 39.4437 48.978 39.4677 50.089C39.5107 52.132 38.2637 54.386 35.4207 54.507C35.3427 54.51 35.2647 54.512 35.1887 54.512C32.3897 54.512 30.9877 52.375 30.8707 50.39C30.7557 48.442 31.8807 46.196 34.6227 45.871ZM35.2467 52.445C36.5077 52.445 37.5287 51.423 37.5287 50.163C37.5287 48.903 36.5077 47.881 35.2467 47.881C33.9867 47.881 32.9647 48.903 32.9647 50.163C32.9647 51.423 33.9867 52.445 35.2467 52.445Z" fill="#EC4D76"/>
</svg>
